<svg width="320" height="268" viewBox="0 0 320 268" fill="none" xmlns="http://www.w3.org/2000/svg">
<path d="M167.649 267.109C251.79 267.109 320 264.574 320 261.447C320 258.319 251.79 255.784 167.649 255.784C83.5078 255.784 15.2979 258.319 15.2979 261.447C15.2979 264.574 83.5078 267.109 167.649 267.109Z" fill="#2563EB"/>
<path opacity="0.8" d="M167.649 267.109C251.79 267.109 320 264.574 320 261.447C320 258.319 251.79 255.784 167.649 255.784C83.5078 255.784 15.2979 258.319 15.2979 261.447C15.2979 264.574 83.5078 267.109 167.649 267.109Z" fill="white"/>
<path d="M240.873 48.5903C240.573 48.5903 240.286 48.7093 240.074 48.9211C239.862 49.133 239.743 49.4203 239.743 49.7198V55.5106H219.103V49.7198C219.103 49.4203 218.984 49.133 218.772 48.9211C218.56 48.7093 218.273 48.5903 217.973 48.5903C217.674 48.5903 217.386 48.7093 217.175 48.9211C216.963 49.133 216.844 49.4203 216.844 49.7198V195.58C216.844 195.879 216.963 196.167 217.175 196.379C217.386 196.59 217.674 196.709 217.973 196.709C218.273 196.709 218.56 196.59 218.772 196.379C218.984 196.167 219.103 195.879 219.103 195.58V162.952H239.743V195.58C239.743 195.879 239.862 196.167 240.074 196.379C240.286 196.59 240.573 196.709 240.873 196.709C241.172 196.709 241.46 196.59 241.671 196.379C241.883 196.167 242.002 195.879 242.002 195.58V49.6972C241.996 49.4016 241.875 49.1201 241.663 48.9131C241.452 48.7061 241.168 48.5902 240.873 48.5903ZM239.743 160.715H219.103V153.396H239.743V160.715ZM239.743 151.129H219.103V143.817H239.743V151.129ZM239.743 141.551H219.103V134.261H239.743V141.551ZM239.743 131.98H219.103V124.721H239.743V131.98ZM239.743 122.416H219.103V115.24H239.743V122.416ZM239.743 112.883H219.103V105.662H239.743V112.883ZM239.743 103.395H219.103V96.1059H239.743V103.395ZM239.743 93.8167H219.103V86.5275H239.743V93.8167ZM239.743 84.2609H219.103V76.9491H239.743V84.2609ZM239.743 74.6825H219.103V67.3556H239.743V74.6825ZM239.743 65.0965H219.103V57.7696H239.743V65.0965Z" fill="white"/>
<path d="M45.3583 166.182C45.3583 166.182 62.2637 143.042 54.0181 137.567C45.4412 131.912 41.4125 149.043 39.5977 157.454C35.7272 175.406 36.8191 179.217 39.417 175.271L45.3583 166.182Z" fill="#2563EB"/>
<path opacity="0.5" d="M45.3583 166.182C45.3583 166.182 62.2637 143.042 54.0181 137.567C45.4412 131.912 41.4125 149.043 39.5977 157.454C35.7272 175.406 36.8191 179.217 39.417 175.271L45.3583 166.182Z" fill="white"/>
<path d="M51.699 180.414C51.699 180.414 75.2008 164.013 69.1691 156.197C62.8964 148.057 53.5213 162.974 49.071 170.324C39.5754 186.047 39.3796 190.008 43.1146 187.116L51.699 180.414Z" fill="#2563EB"/>
<path opacity="0.5" d="M51.699 180.414C51.699 180.414 75.2008 164.013 69.1691 156.197C62.8964 148.057 53.5213 162.974 49.071 170.324C39.5754 186.047 39.3796 190.008 43.1146 187.116L51.699 180.414Z" fill="white"/>
<path d="M52.211 199.435C52.211 199.435 72.5425 190.301 69.0711 183.449C65.4566 176.318 56.1267 186.348 51.6613 191.333C42.1205 201.981 41.3976 204.978 44.6732 203.313L52.211 199.435Z" fill="#2563EB"/>
<path opacity="0.5" d="M52.211 199.435C52.211 199.435 72.5425 190.301 69.0711 183.449C65.4566 176.318 56.1267 186.348 51.6613 191.333C42.1205 201.981 41.3976 204.978 44.6732 203.313L52.211 199.435Z" fill="white"/>
<path d="M53.4156 218.539C53.4156 218.539 73.7471 209.405 70.2832 202.553C66.6612 195.429 57.3388 205.452 52.8659 210.444C43.3326 221.092 42.6022 224.089 45.8854 222.418L53.4156 218.539Z" fill="#2563EB"/>
<path opacity="0.5" d="M53.4156 218.539C53.4156 218.539 73.7471 209.405 70.2832 202.553C66.6612 195.429 57.3388 205.452 52.8659 210.444C43.3326 221.092 42.6022 224.089 45.8854 222.418L53.4156 218.539Z" fill="white"/>
<path d="M29.5675 175.851C29.5675 175.851 7.21781 157.906 1.41202 165.888C-4.61214 174.171 12.3007 179.013 20.6216 181.212C38.3778 185.904 42.2333 184.977 38.4079 182.206L29.5675 175.851Z" fill="#2563EB"/>
<path opacity="0.5" d="M29.5675 175.851C29.5675 175.851 7.21781 157.906 1.41202 165.888C-4.61214 174.171 12.3007 179.013 20.6216 181.212C38.3778 185.904 42.2333 184.977 38.4079 182.206L29.5675 175.851Z" fill="white"/>
<path d="M30.2302 190.843C30.2302 190.843 4.76305 177.696 0.659086 186.679C-3.61054 196.024 13.9348 197.38 22.4967 197.877C40.8327 198.946 44.4322 197.274 40.1324 195.316L30.2302 190.843Z" fill="#2563EB"/>
<path opacity="0.5" d="M30.2302 190.843C30.2302 190.843 4.76305 177.696 0.659086 186.679C-3.61054 196.024 13.9348 197.38 22.4967 197.877C40.8327 198.946 44.4322 197.274 40.1324 195.316L30.2302 190.843Z" fill="white"/>
<path d="M33.3099 207.651C33.3099 207.651 11.4723 197.109 8.2117 204.812C4.81558 212.817 19.6802 213.554 26.9619 213.773C42.4892 214.255 45.4938 212.749 41.8115 211.243L33.3099 207.651Z" fill="#2563EB"/>
<path opacity="0.5" d="M33.3099 207.651C33.3099 207.651 11.4723 197.109 8.2117 204.812C4.81558 212.817 19.6802 213.554 26.9619 213.773C42.4892 214.255 45.4938 212.749 41.8115 211.243L33.3099 207.651Z" fill="white"/>
<path d="M34.3795 221.228C34.3795 221.228 13.7768 208.426 9.71806 215.738C5.49362 223.336 20.2001 225.648 27.414 226.642C42.8058 228.766 45.9459 227.598 42.4745 225.663L34.3795 221.228Z" fill="#2563EB"/>
<path opacity="0.5" d="M34.3795 221.228C34.3795 221.228 13.7768 208.426 9.71806 215.738C5.49362 223.336 20.2001 225.648 27.414 226.642C42.8058 228.766 45.9459 227.598 42.4745 225.663L34.3795 221.228Z" fill="white"/>
<path d="M32.4293 153.117C32.4293 153.117 28.5587 119.51 15.8628 122.944C2.67742 126.528 13.7167 143.531 19.3192 151.754C31.2244 169.254 35.607 171.182 34.6657 165.715L32.4293 153.117Z" fill="#2563EB"/>
<path opacity="0.5" d="M32.4293 153.117C32.4293 153.117 28.5587 119.51 15.8628 122.944C2.67742 126.528 13.7167 143.531 19.3192 151.754C31.2244 169.254 35.607 171.182 34.6657 165.715L32.4293 153.117Z" fill="white"/>
<path d="M18.4604 135.188C18.4604 135.188 37.783 171.393 40.78 188.2C44.2288 207.508 44.786 229.074 42.4065 245.972" stroke="#2563EB" stroke-width="1.25197" stroke-linecap="round" stroke-linejoin="round"/>
<path d="M37.7305 177.018L47.1959 148.027" stroke="#2563EB" stroke-width="1.25197" stroke-linecap="round" stroke-linejoin="round"/>
<path d="M40.7798 188.2L58.5963 165.798" stroke="#2563EB" stroke-width="1.25197" stroke-linecap="round" stroke-linejoin="round"/>
<path d="M39.6427 184.126L13.8442 173.29" stroke="#2563EB" stroke-width="1.25197" stroke-linecap="round" stroke-linejoin="round"/>
<path d="M43.0166 203.374L62.4144 188.509" stroke="#2563EB" stroke-width="1.25197" stroke-linecap="round" stroke-linejoin="round"/>
<path d="M41.985 196.996L21.7212 192.779" stroke="#2563EB" stroke-width="1.25197" stroke-linecap="round" stroke-linejoin="round"/>
<path d="M42.9561 212.515L27.2632 210.03" stroke="#2563EB" stroke-width="1.25197" stroke-linecap="round" stroke-linejoin="round"/>
<path d="M44.2817 222.561L54.8391 213.103" stroke="#2563EB" stroke-width="1.25197" stroke-linecap="round" stroke-linejoin="round"/>
<path d="M44.0705 226.815L26.0356 222.282" stroke="#2563EB" stroke-width="1.25197" stroke-linecap="round" stroke-linejoin="round"/>
<path d="M30.7119 232.335H52.0299V236.747H50.17L46.322 260.822H36.4198L32.5719 236.747H30.7119V232.335Z" fill="#2563EB"/>
<path opacity="0.5" d="M30.7119 232.335H52.0299V236.747H50.17L46.322 260.822H36.4198L32.5719 236.747H30.7119V232.335Z" fill="white"/>
<path d="M65.8179 5.00548C64.8935 4.17963 63.765 3.61629 62.5494 3.37396C61.3338 3.13164 60.0755 3.21916 58.9051 3.62745C54.7635 5.00548 50.7951 10.992 51.7966 16.0598C52.4969 19.5689 55.75 24.7421 56.7364 26.7151C57.7229 28.688 56.3373 32.0239 53.2048 38.9516C50.0722 45.8794 48.8598 52.378 57.9413 58.101C67.0227 63.8239 77.3014 54.7425 82.5726 48.2289C87.8437 41.7152 78.6192 26.7151 77.8285 20.3671C77.0379 14.0191 75.6824 1.85033 65.8179 5.00548Z" fill="#263238"/>
<path d="M87.1662 48.6656C84.9065 50.9265 82.1762 52.6614 79.1697 53.7469C76.1631 54.8324 72.9542 55.2417 69.7714 54.9458L67.5952 64.0197L71.7368 84.7353L98.7778 70.7216L92.6557 54.9082L87.1662 48.6656Z" fill="#2563EB" stroke="#263238" stroke-linecap="round" stroke-linejoin="round"/>
<path opacity="0.3" d="M87.1662 48.6656C84.9065 50.9265 82.1762 52.6614 79.1697 53.7469C76.1631 54.8324 72.9542 55.2417 69.7714 54.9458L67.5952 64.0197L71.7368 84.7353L98.7778 70.7216L92.6557 54.9082L87.1662 48.6656Z" fill="#263238"/>
<path d="M87.1664 48.6656L83.0248 21.2256L70.7506 23.7406L64.6285 27.6865C64.6285 27.6865 57.3242 33.417 57.3242 34.0043C57.3242 34.5917 69.6813 55.2696 69.6813 55.2696C72.8962 55.4598 76.1152 54.97 79.128 53.8321C82.1409 52.6941 84.8799 50.9337 87.1664 48.6656Z" fill="white"/>
<path d="M87.1664 48.6656L83.0248 21.2256L70.7506 23.7406L64.6285 27.6865C64.6285 27.6865 57.3242 33.417 57.3242 34.0043C57.3242 34.5917 69.6813 55.2696 69.6813 55.2696C72.8962 55.4598 76.1152 54.97 79.128 53.8321C82.1409 52.6941 84.8799 50.9337 87.1664 48.6656Z" stroke="#263238" stroke-linecap="round" stroke-linejoin="round"/>
<path opacity="0.5" d="M70.6977 47.4909C70.6977 47.4909 79.35 41.0752 78.5518 42.9728C77.7536 44.8704 71.7746 49.6069 70.1706 49.7499C68.5667 49.893 70.6977 47.4909 70.6977 47.4909Z" fill="#2563EB"/>
<path d="M70.9614 35.307L71.3003 35.661L73.4087 37.8899L73.9509 46.4517L76.5338 46.0451L74.4931 38.0254L77.7612 44.8177L80.4796 42.0993L74.6362 36.798L74.4931 32.5886L71.5036 31.0901" fill="#263238"/>
<path d="M66.2099 25.1412C66.2099 25.1412 63.6421 26.3235 63.6421 28.688C63.6421 31.0525 66.4207 36.6775 68.1602 37.8598C69.8997 39.042 72.8817 33.6278 72.8817 33.6278C72.8817 33.6278 77.3998 35.7965 78.6046 33.8236C79.8094 31.8507 75.841 25.337 73.2808 23.5599C70.7205 21.7828 66.2099 25.1412 66.2099 25.1412Z" fill="white" stroke="#263238" stroke-linecap="round" stroke-linejoin="round"/>
<path d="M64.041 22.7692C64.747 24.5731 65.3406 26.419 65.8181 28.2964C66.2097 30.2693 71.5411 33.6278 72.1285 33.8236C72.7158 34.0193 73.1149 27.5057 73.1149 27.5057L71.5411 19.8098L64.041 22.7692Z" fill="white"/>
<mask id="mask0_50_1587" style="mask-type:luminance" maskUnits="userSpaceOnUse" x="64" y="19" width="10" height="15">
<path d="M64.041 22.7692C64.747 24.5731 65.3406 26.419 65.8181 28.2964C66.2097 30.2693 71.5411 33.6278 72.1285 33.8236C72.7158 34.0193 73.1149 27.5057 73.1149 27.5057L71.5411 19.8098L64.041 22.7692Z" fill="white"/>
</mask>
<g mask="url(#mask0_50_1587)">
<g style="mix-blend-mode:multiply" opacity="0.5">
<path d="M71.7068 20.6307C71.3756 20.5378 71.0385 20.4673 70.6978 20.4198L65.2535 22.34L64.5381 24.2075C64.8995 25.2165 65.3589 26.572 65.6375 27.6714C66.5301 28.391 67.6085 28.8427 68.7475 28.9741C70.3815 29.0871 71.8198 27.822 72.8364 26.2708L71.7068 20.6307Z" fill="#2563EB"/>
</g>
</g>
<path d="M64.041 22.7692C64.747 24.5731 65.3406 26.419 65.8181 28.2964C66.2097 30.2693 71.5411 33.6278 72.1285 33.8236C72.7158 34.0193 73.1149 27.5057 73.1149 27.5057L71.5411 19.8098L64.041 22.7692Z" stroke="#263238" stroke-linecap="round" stroke-linejoin="round"/>
<path d="M60.4868 19.4108C60.4868 19.4108 58.3105 17.6412 58.3105 19.4108C58.3105 21.1804 60.291 22.1743 61.8648 22.1743" fill="white"/>
<path d="M60.4868 19.4108C60.4868 19.4108 58.3105 17.6412 58.3105 19.4108C58.3105 21.1804 60.291 22.1743 61.8648 22.1743" stroke="#263238" stroke-linecap="round" stroke-linejoin="round"/>
<path d="M72.1284 13.6878C72.1284 13.6878 73.514 11.5191 73.9055 13.8911C74.0859 15.4353 73.6623 16.9894 72.7233 18.2285L72.1284 13.6878Z" fill="white" stroke="#263238" stroke-linecap="round" stroke-linejoin="round"/>
<g opacity="0.5">
<path d="M60.4868 19.4108C60.4868 19.4108 58.3105 17.6412 58.3105 19.4108C58.3105 21.1804 60.291 22.1743 61.8648 22.1743" fill="#2563EB"/>
<path d="M60.4868 19.4108C60.4868 19.4108 58.3105 17.6412 58.3105 19.4108C58.3105 21.1804 60.291 22.1743 61.8648 22.1743" stroke="#263238" stroke-linecap="round" stroke-linejoin="round"/>
</g>
<path opacity="0.5" d="M72.1284 13.6878C72.1284 13.6878 73.514 11.5191 73.9055 13.8911C74.0859 15.4353 73.6623 16.9894 72.7233 18.2285L72.1284 13.6878Z" fill="#2563EB" stroke="#263238" stroke-linecap="round" stroke-linejoin="round"/>
<path d="M58.0396 13.7029C58.0396 13.7029 59.7338 20.7587 63.3709 24.2452C67.008 27.7316 70.9011 27.7618 72.249 21.5493C73.356 16.4288 70.6075 9.59892 70.6075 9.59892C70.6075 9.59892 61.7369 2.29462 58.0396 13.7029Z" fill="white"/>
<mask id="mask1_50_1587" style="mask-type:luminance" maskUnits="userSpaceOnUse" x="58" y="7" width="15" height="20">
<path d="M58.0396 13.7029C58.0396 13.7029 59.7338 20.7587 63.3709 24.2452C67.008 27.7316 70.9011 27.7618 72.249 21.5493C73.356 16.4288 70.6075 9.59892 70.6075 9.59892C70.6075 9.59892 61.7369 2.29462 58.0396 13.7029Z" fill="white"/>
</mask>
<g mask="url(#mask1_50_1587)">
<g style="mix-blend-mode:multiply" opacity="0.5">
<path d="M64.3574 7.30221L65.7355 10.7661C65.7355 10.7661 67.9042 10.2842 69.124 12.9047C70.3439 15.5252 71.5714 19.3656 70.8711 22.34C70.2009 25.1714 68.612 26.1051 66.1647 26.1729C68.8304 27.31 71.2476 26.1729 72.2491 21.5343C73.356 16.4138 70.6075 9.58386 70.6075 9.58386C70.6075 9.58386 67.6029 7.12148 64.3574 7.30221Z" fill="#2563EB"/>
</g>
</g>
<path d="M58.0396 13.7029C58.0396 13.7029 59.7338 20.7587 63.3709 24.2452C67.008 27.7316 70.9011 27.7618 72.249 21.5493C73.356 16.4288 70.6075 9.59892 70.6075 9.59892C70.6075 9.59892 61.7369 2.29462 58.0396 13.7029Z" stroke="#263238" stroke-linecap="round" stroke-linejoin="round"/>
<path d="M64.7714 17.4303C64.9822 17.8294 64.9446 18.2587 64.6885 18.3942C64.4325 18.5297 64.056 18.3114 63.8527 17.9123C63.6494 17.5132 63.6795 17.0915 63.9355 16.9559C64.1915 16.8204 64.568 17.0388 64.7714 17.4303Z" fill="#263238"/>
<path d="M68.7019 16.2104C68.8525 16.6321 68.7546 17.0538 68.4836 17.1442C68.2125 17.2345 67.8661 16.9785 67.7305 16.5568C67.595 16.1351 67.6778 15.7134 67.9489 15.6231C68.22 15.5327 68.5513 15.8038 68.7019 16.2104Z" fill="#263238"/>
<path d="M68.9733 13.9514C68.6657 13.7447 68.2989 13.6446 67.9289 13.6663C67.559 13.6881 67.2064 13.8305 66.9251 14.0719C65.8408 14.9152 67.889 19.1397 67.889 19.1397C67.889 19.1397 67.9266 20.4725 66.2173 19.855" stroke="#263238" stroke-width="0.5" stroke-linecap="round" stroke-linejoin="round"/>
<path d="M68.9735 21.2256C68.8562 21.5029 68.6761 21.7491 68.4473 21.9449C68.2186 22.1407 67.9475 22.2806 67.6554 22.3536C67.3633 22.4266 67.0582 22.4308 66.7642 22.3657C66.4702 22.3006 66.1954 22.1681 65.9614 21.9786" stroke="#263238" stroke-width="0.5" stroke-linecap="round" stroke-linejoin="round"/>
<path d="M64.3873 15.0734C64.3873 15.0734 62.4596 13.2586 61.6162 16.7601" stroke="#263238" stroke-width="0.5" stroke-linecap="round" stroke-linejoin="round"/>
<path d="M70.72 7.36242C68.604 5.52505 66.8947 5.54764 66.1492 5.78861C65.4514 5.35318 64.6578 5.09469 63.8374 5.03559C57.9187 4.24492 57.128 8.80069 57.128 13.1306C57.128 17.4604 53.3629 22.6036 55.9458 23.1984C56.6526 23.368 57.3967 23.2828 58.0468 22.9577C58.697 22.6326 59.2116 22.0885 59.5 21.4213C59.5 21.4213 62.2636 16.9032 62.2636 13.7179C62.2636 10.5326 65.7049 10.8338 65.7049 10.8338C65.8535 10.6145 66.0478 10.4299 66.2744 10.2927C66.501 10.1554 66.7546 10.0688 67.0178 10.0388C67.281 10.0087 67.5476 10.036 67.7993 10.1186C68.051 10.2013 68.2819 10.3374 68.476 10.5176C70.0423 11.858 70.223 13.4318 71.4881 13.8384C72.7532 14.245 74.8692 12.2119 74.8692 12.2119C73.6638 10.4515 72.2728 8.82566 70.72 7.36242Z" fill="#263238"/>
<path d="M65.8707 8.54468C65.8707 8.54468 63.4911 6.63201 61.3526 8.77811C59.214 10.9242 59.4474 14.983 58.732 17.611C58.0167 20.2391 56.104 20.7135 56.104 20.7135" stroke="white" stroke-width="0.5" stroke-linecap="round" stroke-linejoin="round"/>
<path d="M64.2066 7.82932C64.2066 7.82932 61.6388 5.28411 58.4084 8.50703C55.946 10.9769 57.0454 12.5959 56.5635 16.6547" stroke="white" stroke-width="0.5" stroke-linecap="round" stroke-linejoin="round"/>
<path d="M67.0684 7.3474C67.0684 7.3474 71.5865 5.20128 73.5142 10.6908" stroke="white" stroke-width="0.5" stroke-linecap="round" stroke-linejoin="round"/>
<path d="M57.324 34.0193L50.4941 61.5046L70.5245 67.1824L71.5109 63.6281L58.3557 57.5588L62.8211 41.7453C62.8211 41.7453 62.2337 38.786 59.056 35.435" fill="white"/>
<mask id="mask2_50_1587" style="mask-type:luminance" maskUnits="userSpaceOnUse" x="50" y="34" width="22" height="34">
<path d="M57.324 34.0193L50.4941 61.5046L70.5245 67.1824L71.5109 63.6281L58.3557 57.5588L62.8211 41.7453C62.8211 41.7453 62.2337 38.786 59.056 35.435" fill="white"/>
</mask>
<g mask="url(#mask2_50_1587)">
<g style="mix-blend-mode:multiply" opacity="0.5">
<path d="M71.5412 63.6507L58.3859 57.5814L62.8513 41.7679C62.5016 40.4552 61.934 39.2105 61.1721 38.0857L60.7429 37.7619V42.1294C60.7429 44.9231 57.2489 53.8313 56.0214 55.9247C54.794 58.0181 52.8813 60.6386 52.8813 60.6386L56.7218 58.8916L71.2776 64.72L71.5412 63.6507Z" fill="#2563EB"/>
</g>
</g>
<path d="M57.324 34.0193L50.4941 61.5046L70.5245 67.1824L71.5109 63.6281L58.3557 57.5588L62.8211 41.7453C62.8211 41.7453 62.2337 38.786 59.056 35.435" stroke="#263238" stroke-linecap="round" stroke-linejoin="round"/>
<path d="M113.642 42.2725L98.4764 39.0872L82.9868 21.1879L85.276 35.5857L94.7791 44.637L113.876 45.5105L113.642 42.2725Z" fill="white"/>
<mask id="mask3_50_1587" style="mask-type:luminance" maskUnits="userSpaceOnUse" x="82" y="21" width="32" height="25">
<path d="M113.642 42.2725L98.4764 39.0872L82.9868 21.1879L85.276 35.5857L94.7791 44.637L113.876 45.5105L113.642 42.2725Z" fill="white"/>
</mask>
<g mask="url(#mask3_50_1587)">
<g style="mix-blend-mode:multiply" opacity="0.5">
<path d="M82.9868 21.1879L84.8317 32.679L86.0064 36.2709L86.157 36.4064C86.6013 35.9471 89.1089 33.3416 89.7489 33.3416C90.389 33.3416 97.6105 39.6294 96.5638 40.1188L95.5095 40.6384L113.499 43.6053L113.627 42.2273L98.4915 39.0495L82.9868 21.1879Z" fill="#2563EB"/>
</g>
</g>
<path d="M113.642 42.2725L98.4764 39.0872L82.9868 21.1879L85.276 35.5857L94.7791 44.637L113.876 45.5105L113.642 42.2725Z" stroke="#263238" stroke-linecap="round" stroke-linejoin="round"/>
<path d="M255.218 194.676L62.0908 166.378C61.4768 166.287 60.9241 165.955 60.5542 165.457C60.1842 164.959 60.0273 164.334 60.1178 163.72L76.2024 53.997C76.2466 53.6933 76.3503 53.4013 76.5075 53.1377C76.6647 52.8741 76.8723 52.6441 77.1185 52.4608C77.3647 52.2776 77.6447 52.1447 77.9423 52.0698C78.2399 51.9948 78.5494 51.9793 78.853 52.0241L82.5127 52.5587C82.9762 52.6283 83.45 52.5562 83.8719 52.352C84.2938 52.1478 84.6442 51.8209 84.8772 51.4141L89.7341 43.0179C89.8816 42.7543 90.0815 42.5237 90.3215 42.3402C91.4585 41.518 92.8716 41.1722 94.2598 41.3764L142.943 48.515C144.035 48.6718 145.052 49.1608 145.857 49.9156C146.071 50.1306 146.24 50.3867 146.354 50.6686L150.684 61.3916C150.836 61.7709 151.085 62.1035 151.406 62.356C151.727 62.6085 152.109 62.7719 152.513 62.8299L271.98 80.3452C272.594 80.4346 273.147 80.7639 273.519 81.2609C273.89 81.7578 274.049 82.3818 273.961 82.9958L257.876 192.711C257.783 193.324 257.451 193.874 256.953 194.243C256.455 194.611 255.831 194.767 255.218 194.676Z" fill="#263238" stroke="#263238" stroke-miterlimit="10"/>
<path d="M257.274 194.142H65.8482C65.2924 194.142 64.7421 194.032 64.2287 193.82C63.7152 193.607 63.2487 193.295 62.8557 192.902C62.4628 192.509 62.151 192.043 61.9383 191.529C61.7257 191.016 61.6162 190.465 61.6162 189.91V82.8C61.6162 81.6777 62.0621 80.6012 62.8557 79.8076C63.6494 79.0139 64.7258 78.5681 65.8482 78.5681H66.3678C67.215 78.5664 68.0425 78.3118 68.7441 77.8369C69.4458 77.3619 69.9897 76.6883 70.3061 75.9024L73.2203 68.5755C73.546 67.7298 74.1415 67.0152 74.9146 66.5423C75.745 66.052 76.6912 65.7921 77.6556 65.7893H126.858C127.519 65.7886 128.175 65.9086 128.793 66.1432C129.652 66.4893 130.368 67.1156 130.826 67.9204L135.834 76.4521C136.207 77.0893 136.741 77.6178 137.381 77.9851C138.022 78.3523 138.748 78.5455 139.486 78.5455H257.274C258.396 78.5455 259.472 78.9913 260.266 79.785C261.06 80.5786 261.506 81.6551 261.506 82.7775V189.91C261.506 190.465 261.396 191.016 261.183 191.529C260.971 192.043 260.659 192.509 260.266 192.902C259.873 193.295 259.406 193.607 258.893 193.82C258.38 194.032 257.829 194.142 257.274 194.142Z" fill="#2563EB"/>
<mask id="mask4_50_1587" style="mask-type:luminance" maskUnits="userSpaceOnUse" x="61" y="65" width="201" height="130">
<path d="M257.274 194.142H65.8482C65.2924 194.142 64.7421 194.032 64.2287 193.82C63.7152 193.607 63.2487 193.295 62.8557 192.902C62.4628 192.509 62.151 192.043 61.9383 191.529C61.7257 191.016 61.6162 190.465 61.6162 189.91V82.8C61.6162 81.6777 62.0621 80.6012 62.8557 79.8076C63.6494 79.0139 64.7258 78.5681 65.8482 78.5681H66.3678C67.215 78.5664 68.0425 78.3118 68.7441 77.8369C69.4458 77.3619 69.9897 76.6883 70.3061 75.9024L73.2203 68.5755C73.546 67.7298 74.1415 67.0152 74.9146 66.5423C75.745 66.052 76.6912 65.7921 77.6556 65.7893H126.858C127.519 65.7886 128.175 65.9086 128.793 66.1432C129.652 66.4893 130.368 67.1156 130.826 67.9204L135.834 76.4521C136.207 77.0893 136.741 77.6178 137.381 77.9851C138.022 78.3523 138.748 78.5455 139.486 78.5455H257.274C258.396 78.5455 259.472 78.9913 260.266 79.785C261.06 80.5786 261.506 81.6551 261.506 82.7775V189.91C261.506 190.465 261.396 191.016 261.183 191.529C260.971 192.043 260.659 192.509 260.266 192.902C259.873 193.295 259.406 193.607 258.893 193.82C258.38 194.032 257.829 194.142 257.274 194.142Z" fill="white"/>
</mask>
<g mask="url(#mask4_50_1587)">
<path opacity="0.1" d="M257.274 194.142H65.8482C65.2924 194.142 64.7421 194.032 64.2287 193.82C63.7152 193.607 63.2487 193.295 62.8557 192.902C62.4628 192.509 62.151 192.043 61.9383 191.529C61.7257 191.016 61.6162 190.465 61.6162 189.91V82.8C61.6162 81.6777 62.0621 80.6012 62.8557 79.8076C63.6494 79.0139 64.7258 78.5681 65.8482 78.5681H66.3678C67.215 78.5664 68.0425 78.3118 68.7441 77.8369C69.4458 77.3619 69.9897 76.6883 70.3061 75.9024L73.2203 68.5755C73.546 67.7298 74.1415 67.0152 74.9146 66.5423C75.745 66.052 76.6912 65.7921 77.6556 65.7893H126.858C127.519 65.7886 128.175 65.9086 128.793 66.1432C129.652 66.4893 130.368 67.1156 130.826 67.9204L135.834 76.4521C136.207 77.0893 136.741 77.6178 137.381 77.9851C138.022 78.3523 138.748 78.5455 139.486 78.5455H257.274C258.396 78.5455 259.472 78.9913 260.266 79.785C261.06 80.5786 261.506 81.6551 261.506 82.7775V189.91C261.506 190.465 261.396 191.016 261.183 191.529C260.971 192.043 260.659 192.509 260.266 192.902C259.873 193.295 259.406 193.607 258.893 193.82C258.38 194.032 257.829 194.142 257.274 194.142Z" fill="#263238"/>
</g>
<path d="M257.274 194.142H65.8482C65.2924 194.142 64.7421 194.032 64.2287 193.82C63.7152 193.607 63.2487 193.295 62.8557 192.902C62.4628 192.509 62.151 192.043 61.9383 191.529C61.7257 191.016 61.6162 190.465 61.6162 189.91V82.8C61.6162 81.6777 62.0621 80.6012 62.8557 79.8076C63.6494 79.0139 64.7258 78.5681 65.8482 78.5681H66.3678C67.215 78.5664 68.0425 78.3118 68.7441 77.8369C69.4458 77.3619 69.9897 76.6883 70.3061 75.9024L73.2203 68.5755C73.546 67.7298 74.1415 67.0152 74.9146 66.5423C75.745 66.052 76.6912 65.7921 77.6555 65.7893H126.858C127.519 65.7886 128.175 65.9086 128.793 66.1432C129.652 66.4893 130.368 67.1156 130.826 67.9204L135.834 76.4521C136.207 77.0893 136.741 77.6178 137.381 77.9851C138.022 78.3523 138.748 78.5455 139.486 78.5455H257.274C258.396 78.5455 259.472 78.9913 260.266 79.785C261.06 80.5786 261.506 81.6551 261.506 82.7775V189.91C261.506 190.465 261.396 191.016 261.183 191.529C260.971 192.043 260.659 192.509 260.266 192.902C259.873 193.295 259.406 193.607 258.893 193.82C258.38 194.032 257.829 194.142 257.274 194.142Z" stroke="#263238" stroke-miterlimit="10"/>
<path d="M115.706 78.2066H85.073C84.342 78.2066 83.641 77.9162 83.1241 77.3994C82.6073 76.8825 82.3169 76.1815 82.3169 75.4505C82.3159 75.088 82.3865 74.7288 82.5245 74.3935C82.6626 74.0583 82.8654 73.7536 83.1215 73.4968C83.3775 73.2401 83.6816 73.0364 84.0165 72.8975C84.3514 72.7585 84.7104 72.6869 85.073 72.687H115.706C116.439 72.687 117.142 72.9781 117.66 73.4964C118.178 74.0147 118.469 74.7176 118.469 75.4505C118.469 75.8131 118.398 76.1721 118.259 76.507C118.12 76.8418 117.916 77.146 117.66 77.402C117.403 77.658 117.098 77.8609 116.763 77.999C116.428 78.137 116.068 78.2076 115.706 78.2066Z" fill="white"/>
<path d="M257.274 212.832H65.8482C64.7258 212.832 63.6494 212.386 62.8557 211.592C62.0621 210.798 61.6162 209.722 61.6162 208.6V101.49C61.6162 100.368 62.0621 99.2912 62.8557 98.4975C63.6494 97.7039 64.7258 97.258 65.8482 97.258H66.3678C67.2153 97.2573 68.0432 97.0031 68.745 96.5281C69.4469 96.053 69.9905 95.3789 70.3061 94.5923L73.2203 87.273C73.544 86.4262 74.14 85.711 74.9146 85.2398C75.7437 84.7464 76.6907 84.4862 77.6556 84.4868H126.858C127.519 84.4861 128.175 84.606 128.793 84.8407C129.654 85.1872 130.371 85.8166 130.826 86.6254L135.834 95.1646C136.207 95.8019 136.741 96.3304 137.381 96.6976C138.022 97.0649 138.748 97.2581 139.486 97.258H257.274C258.396 97.258 259.472 97.7039 260.266 98.4975C261.06 99.2912 261.506 100.368 261.506 101.49V208.6C261.506 209.722 261.06 210.798 260.266 211.592C259.472 212.386 258.396 212.832 257.274 212.832Z" fill="#263238" stroke="#263238" stroke-miterlimit="10"/>
<path d="M130.382 56.1205L99.9903 52.3554C99.2644 52.2632 98.6044 51.8876 98.1544 51.3106C97.7044 50.7336 97.5008 50.0021 97.5882 49.2756C97.6803 48.5487 98.0572 47.8881 98.6361 47.4391C99.2151 46.9901 99.9486 46.7893 100.676 46.8809L131.06 50.646C131.787 50.7364 132.448 51.1114 132.898 51.6889C133.349 52.2664 133.551 52.999 133.462 53.7259C133.417 54.0855 133.302 54.4327 133.123 54.7478C132.944 55.0628 132.705 55.3395 132.419 55.5619C132.133 55.7843 131.806 55.9481 131.456 56.044C131.107 56.1398 130.742 56.1658 130.382 56.1205Z" fill="#2563EB"/>
<path opacity="0.5" d="M130.382 56.1205L99.9903 52.3554C99.2644 52.2632 98.6044 51.8876 98.1544 51.3106C97.7044 50.7336 97.5008 50.0021 97.5882 49.2756C97.6803 48.5487 98.0572 47.8881 98.6361 47.4391C99.2151 46.9901 99.9486 46.7893 100.676 46.8809L131.06 50.646C131.787 50.7364 132.448 51.1114 132.898 51.6889C133.349 52.2664 133.551 52.999 133.462 53.7259C133.417 54.0855 133.302 54.4327 133.123 54.7478C132.944 55.0628 132.705 55.3395 132.419 55.5619C132.133 55.7843 131.806 55.9481 131.456 56.044C131.107 56.1398 130.742 56.1658 130.382 56.1205Z" fill="white"/>
<path d="M115.706 96.9041H85.073C84.7104 96.9041 84.3514 96.8326 84.0165 96.6936C83.6816 96.5546 83.3775 96.3509 83.1215 96.0942C82.8654 95.8375 82.6626 95.5328 82.5245 95.1975C82.3865 94.8623 82.3159 94.5031 82.3169 94.1405C82.3169 93.4089 82.607 92.7071 83.1237 92.189C83.6403 91.671 84.3413 91.3789 85.073 91.377H115.706C116.439 91.377 117.142 91.6681 117.66 92.1864C118.178 92.7047 118.469 93.4076 118.469 94.1405C118.469 94.8735 118.178 95.5764 117.66 96.0947C117.142 96.613 116.439 96.9041 115.706 96.9041Z" fill="#2563EB"/>
<path opacity="0.5" d="M115.706 96.9041H85.073C84.7104 96.9041 84.3514 96.8326 84.0165 96.6936C83.6816 96.5546 83.3775 96.3509 83.1215 96.0942C82.8654 95.8375 82.6626 95.5328 82.5245 95.1975C82.3865 94.8623 82.3159 94.5031 82.3169 94.1405C82.3169 93.4089 82.607 92.7071 83.1237 92.189C83.6403 91.671 84.3413 91.3789 85.073 91.377H115.706C116.439 91.377 117.142 91.6681 117.66 92.1864C118.178 92.7047 118.469 93.4076 118.469 94.1405C118.469 94.8735 118.178 95.5764 117.66 96.0947C117.142 96.613 116.439 96.9041 115.706 96.9041Z" fill="white"/>
<path d="M263.531 129.472H59.5832C57.3915 129.472 55.6147 131.249 55.6147 133.441V256.853C55.6147 259.045 57.3915 260.822 59.5832 260.822H263.531C265.723 260.822 267.5 259.045 267.5 256.853V133.441C267.5 131.249 265.723 129.472 263.531 129.472Z" fill="white"/>
<mask id="mask5_50_1587" style="mask-type:luminance" maskUnits="userSpaceOnUse" x="55" y="129" width="213" height="132">
<path d="M263.531 129.472H59.5832C57.3915 129.472 55.6147 131.249 55.6147 133.441V256.853C55.6147 259.045 57.3915 260.822 59.5832 260.822H263.531C265.723 260.822 267.5 259.045 267.5 256.853V133.441C267.5 131.249 265.723 129.472 263.531 129.472Z" fill="white"/>
</mask>
<g mask="url(#mask5_50_1587)">
<g style="mix-blend-mode:multiply">
<path d="M267.5 164.827C244.013 186.778 217.328 205.033 188.357 218.969C145.548 239.443 96.6168 253.555 68.1074 260.822H263.524C264.046 260.823 264.562 260.721 265.045 260.522C265.527 260.323 265.965 260.031 266.335 259.662C266.704 259.293 266.997 258.855 267.197 258.374C267.397 257.892 267.5 257.375 267.5 256.853V164.827Z" fill="#2563EB"/>
</g>
<path opacity="0.2" d="M267.5 164.827C244.013 186.778 217.328 205.033 188.357 218.969C145.548 239.443 96.6168 253.555 68.1074 260.822H263.524C264.046 260.823 264.562 260.721 265.045 260.522C265.527 260.323 265.965 260.031 266.335 259.662C266.704 259.293 266.997 258.855 267.197 258.374C267.397 257.892 267.5 257.375 267.5 256.853V164.827Z" fill="white"/>
</g>
<path d="M263.531 129.472H59.5832C57.3915 129.472 55.6147 131.249 55.6147 133.441V256.853C55.6147 259.045 57.3915 260.822 59.5832 260.822H263.531C265.723 260.822 267.5 259.045 267.5 256.853V133.441C267.5 131.249 265.723 129.472 263.531 129.472Z" stroke="#263238" stroke-miterlimit="10"/>
<path d="M58.6797 141.009V135.737C58.6817 134.684 59.1015 133.675 59.8469 132.931C60.5923 132.187 61.6025 131.769 62.6556 131.769H71.2777" stroke="#263238" stroke-miterlimit="10"/>
<path d="M58.6797 221.062V147.432" stroke="#263238" stroke-miterlimit="10"/>
<path d="M264.427 246.183V254.519C264.428 255.041 264.326 255.557 264.127 256.04C263.928 256.522 263.636 256.96 263.267 257.33C262.899 257.699 262.461 257.992 261.979 258.192C261.497 258.392 260.98 258.495 260.459 258.495H253.508" stroke="#263238" stroke-miterlimit="10"/>
<path d="M264.427 139.156V239.986" stroke="#263238" stroke-miterlimit="10"/>
<path d="M193.056 177.5H130.051C128.916 177.5 127.995 178.42 127.995 179.556V211.702C127.995 212.837 128.916 213.758 130.051 213.758H193.056C194.191 213.758 195.112 212.837 195.112 211.702V179.556C195.112 178.42 194.191 177.5 193.056 177.5Z" fill="#263238" stroke="#263238" stroke-miterlimit="10"/>
<path d="M193.056 177.5H130.051C128.916 177.5 127.995 178.42 127.995 179.556V186.468C127.995 187.604 128.916 188.524 130.051 188.524H193.056C194.191 188.524 195.112 187.604 195.112 186.468V179.556C195.112 178.42 194.191 177.5 193.056 177.5Z" fill="white" stroke="#263238" stroke-miterlimit="10"/>
<path d="M70.5244 67.1824L71.9024 69.7502L74.8317 71.8586C75.0158 71.9939 75.2364 72.0706 75.4648 72.0786C75.6931 72.0867 75.9186 72.0258 76.1118 71.9038L76.3678 71.7382C76.5541 71.6251 76.6927 71.448 76.7579 71.2401C76.823 71.0322 76.8102 70.8077 76.7218 70.6086L75.0576 66.7833L76.1796 67.6568C76.3577 67.7941 76.5822 67.8567 76.8057 67.8314C77.0291 67.8061 77.234 67.6949 77.3769 67.5212C77.5009 67.3663 77.5685 67.1738 77.5685 66.9753C77.5685 66.7768 77.5009 66.5843 77.3769 66.4294L74.7639 63.1236L71.4958 63.6281L70.5244 67.1824Z" fill="white" stroke="#263238" stroke-miterlimit="10"/>
<path d="M76.3979 71.7382L73.7773 68.2968" stroke="#263238" stroke-width="0.5" stroke-linecap="round" stroke-linejoin="round"/>
<path d="M74.8619 71.8586L72.8062 69.1327" stroke="#263238" stroke-width="0.5" stroke-linecap="round" stroke-linejoin="round"/>
<path d="M113.643 42.2725L117.739 42.5134L122.724 45.6987C122.724 45.6987 123.003 46.6701 122.31 46.8056C121.617 46.9412 117.875 45.5632 117.875 45.5632L113.876 45.5105L113.643 42.2725Z" fill="white" stroke="#263238" stroke-miterlimit="10"/>
<path d="M113.854 45.0059L118.153 46.9487C118.153 46.9487 118.846 45.9773 117.875 45.5632L116.459 44.5918" fill="white"/>
<path d="M113.854 45.0059L118.153 46.9487C118.153 46.9487 118.846 45.9773 117.875 45.5632L116.459 44.5918" stroke="#263238" stroke-linejoin="round"/>
<path d="M265.76 118.44L263.983 113.124L261.987 110.391C261.954 110.341 261.906 110.303 261.85 110.284C261.793 110.264 261.732 110.264 261.675 110.283C261.618 110.302 261.57 110.339 261.536 110.388C261.503 110.438 261.487 110.497 261.49 110.556V118.433L262.996 120.413L265.76 118.44Z" fill="white"/>
<path d="M294.721 141.686L279.811 142.213C279.261 142.233 278.717 142.095 278.242 141.816C277.767 141.537 277.382 141.129 277.13 140.64L265.76 118.44C265.76 118.44 263.2 119.826 263.004 120.413C262.808 121.001 271.423 142.605 274.066 149.239C274.288 149.796 274.677 150.27 275.18 150.597C275.683 150.923 276.275 151.085 276.874 151.061L293.539 150.354" fill="white"/>
<path d="M294.721 141.686L279.811 142.213C279.261 142.233 278.717 142.095 278.242 141.816C277.767 141.537 277.382 141.129 277.13 140.64L265.76 118.44C265.76 118.44 263.2 119.826 263.004 120.413C262.808 121.001 271.423 142.605 274.066 149.239C274.288 149.796 274.677 150.27 275.18 150.597C275.683 150.923 276.275 151.085 276.874 151.061L293.539 150.354" stroke="#263238" stroke-miterlimit="10"/>
<path d="M266.852 121.204L264.518 122.168" stroke="#263238" stroke-width="0.75" stroke-miterlimit="10"/>
<g opacity="0.5">
<path d="M294.721 141.686L279.811 142.213C279.261 142.233 278.717 142.095 278.242 141.816C277.767 141.537 277.382 141.129 277.13 140.64L265.76 118.44C265.76 118.44 263.2 119.826 263.004 120.413C262.808 121.001 271.423 142.605 274.066 149.239C274.288 149.796 274.677 150.27 275.18 150.597C275.683 150.923 276.275 151.085 276.874 151.061L293.539 150.354" fill="#2563EB"/>
<path d="M294.721 141.686L279.811 142.213C279.261 142.233 278.717 142.095 278.242 141.816C277.767 141.537 277.382 141.129 277.13 140.64L265.76 118.44C265.76 118.44 263.2 119.826 263.004 120.413C262.808 121.001 271.423 142.605 274.066 149.239C274.288 149.796 274.677 150.27 275.18 150.597C275.683 150.923 276.275 151.085 276.874 151.061L293.539 150.354" stroke="#263238" stroke-miterlimit="10"/>
<path d="M266.852 121.204L264.518 122.168" stroke="#263238" stroke-width="0.75" stroke-miterlimit="10"/>
</g>
<path d="M265.76 118.44L263.983 113.124L261.987 110.391C261.954 110.341 261.906 110.303 261.85 110.284C261.793 110.264 261.732 110.264 261.675 110.283C261.618 110.302 261.57 110.339 261.536 110.388C261.503 110.438 261.487 110.497 261.49 110.556V118.433L262.996 120.413L265.76 118.44Z" fill="#2563EB"/>
<mask id="mask6_50_1587" style="mask-type:luminance" maskUnits="userSpaceOnUse" x="261" y="110" width="5" height="11">
<path d="M265.76 118.44L263.983 113.124L261.987 110.391C261.954 110.341 261.906 110.303 261.85 110.284C261.793 110.264 261.732 110.264 261.675 110.283C261.618 110.302 261.57 110.339 261.536 110.388C261.503 110.438 261.487 110.497 261.49 110.556V118.433L262.996 120.413L265.76 118.44Z" fill="white"/>
</mask>
<g mask="url(#mask6_50_1587)">
<path opacity="0.5" d="M265.76 118.44L263.983 113.124L261.987 110.391C261.954 110.341 261.906 110.303 261.85 110.284C261.793 110.264 261.732 110.264 261.675 110.283C261.618 110.302 261.57 110.339 261.536 110.388C261.503 110.438 261.487 110.497 261.49 110.556V118.433L262.996 120.413L265.76 118.44Z" fill="white"/>
</g>
<path d="M265.76 118.44L263.983 113.124L261.987 110.391C261.954 110.341 261.906 110.303 261.85 110.284C261.793 110.264 261.732 110.264 261.675 110.283C261.618 110.302 261.57 110.339 261.536 110.388C261.503 110.438 261.487 110.497 261.49 110.556V118.433L262.996 120.413L265.76 118.44Z" stroke="#263238" stroke-miterlimit="10"/>
<path d="M299.337 127.657C298.621 128.565 298.108 129.615 297.831 130.737C297.613 132.183 297.959 137.748 297.959 137.748L290.203 138.621C290.203 138.621 290.79 132.966 290.821 132.025C291.069 130.858 291.563 129.757 292.271 128.796C292.979 127.835 293.883 127.036 294.925 126.453C297.59 125.142 299.857 125.782 299.337 127.657Z" fill="white"/>
<mask id="mask7_50_1587" style="mask-type:luminance" maskUnits="userSpaceOnUse" x="290" y="125" width="10" height="14">
<path d="M299.337 127.657C298.621 128.565 298.108 129.615 297.831 130.737C297.613 132.183 297.959 137.748 297.959 137.748L290.203 138.621C290.203 138.621 290.79 132.966 290.821 132.025C291.069 130.858 291.563 129.757 292.271 128.796C292.979 127.835 293.883 127.036 294.925 126.453C297.59 125.142 299.857 125.782 299.337 127.657Z" fill="white"/>
</mask>
<g mask="url(#mask7_50_1587)">
<g style="mix-blend-mode:multiply" opacity="0.5">
<path d="M299.284 127.718C297.876 127.334 296.167 126.904 294.721 126.558C293.727 127.15 292.866 127.94 292.191 128.879C291.516 129.818 291.042 130.887 290.798 132.017C290.798 132.379 290.692 133.433 290.587 134.593C291.34 134.42 292.537 134.156 293.426 133.998C294.13 133.884 294.822 133.71 295.497 133.478L295.233 137.996H295.406L297.936 137.71C297.936 137.71 297.59 132.145 297.808 130.7C298.083 129.612 298.587 128.596 299.284 127.718Z" fill="#2563EB"/>
</g>
</g>
<path d="M299.337 127.657C298.621 128.565 298.108 129.615 297.831 130.737C297.613 132.183 297.959 137.748 297.959 137.748L290.203 138.621C290.203 138.621 290.79 132.966 290.821 132.025C291.069 130.858 291.563 129.757 292.271 128.796C292.979 127.835 293.883 127.036 294.925 126.453C297.59 125.142 299.857 125.782 299.337 127.657Z" stroke="#263238" stroke-width="1.00396" stroke-miterlimit="10"/>
<path d="M300.949 128.614C307.379 120.12 291.875 111.294 287.801 119.736C287.233 120.777 286.784 121.878 286.461 123.019C285.843 123.395 284.201 124.404 283.9 124.683C283.599 124.962 284.653 125.677 285.233 126.031C284.126 128.749 284.292 131.611 284.608 132.258C285.158 133.373 287.869 133.388 289.653 133.057C291.438 132.725 292.146 131.016 292.665 130.549C293.185 130.082 295.775 130.677 296.687 130.948C297.598 131.219 299.699 130.293 300.949 128.614Z" fill="white"/>
<mask id="mask8_50_1587" style="mask-type:luminance" maskUnits="userSpaceOnUse" x="283" y="116" width="20" height="18">
<path d="M300.949 128.614C307.379 120.12 291.875 111.294 287.801 119.736C287.233 120.777 286.784 121.878 286.461 123.019C285.843 123.395 284.201 124.404 283.9 124.683C283.599 124.962 284.653 125.677 285.233 126.031C284.126 128.749 284.292 131.611 284.608 132.258C285.158 133.373 287.869 133.388 289.653 133.057C291.438 132.725 292.146 131.016 292.665 130.549C293.185 130.082 295.775 130.677 296.687 130.948C297.598 131.219 299.699 130.293 300.949 128.614Z" fill="white"/>
</mask>
<g mask="url(#mask8_50_1587)">
<g style="mix-blend-mode:multiply" opacity="0.5">
<path d="M294.585 127.801C294.585 127.801 294.721 128.441 293.426 128.96C292.131 129.48 291.875 129.088 291.491 129.992C291.328 130.586 290.998 131.121 290.54 131.533C290.082 131.946 289.516 132.218 288.908 132.319C287.681 132.552 286.441 132.71 285.195 132.793C286.219 133.365 288.253 133.32 289.713 133.057C291.491 132.733 292.206 131.016 292.726 130.549C293.245 130.082 295.836 130.677 296.747 130.948C296.96 130.991 297.18 130.991 297.394 130.948C297.734 130.192 297.938 129.381 297.997 128.554L294.585 127.801Z" fill="#2563EB"/>
</g>
</g>
<path d="M300.949 128.614C307.379 120.12 291.875 111.294 287.801 119.736C287.233 120.777 286.784 121.878 286.461 123.019C285.843 123.395 284.201 124.404 283.9 124.683C283.599 124.962 284.653 125.677 285.233 126.031C284.126 128.749 284.292 131.611 284.608 132.258C285.158 133.373 287.869 133.388 289.653 133.057C291.438 132.725 292.146 131.016 292.665 130.549C293.185 130.082 295.775 130.677 296.687 130.948C297.598 131.219 299.699 130.293 300.949 128.614Z" stroke="#263238" stroke-miterlimit="10"/>
<path d="M288.388 123.764C288.223 124.126 287.944 124.352 287.763 124.269C287.583 124.186 287.568 123.825 287.763 123.463C287.959 123.102 288.208 122.876 288.388 122.959C288.569 123.041 288.554 123.403 288.388 123.764Z" fill="#263238"/>
<path d="M288.238 121.445C288.238 121.445 288.991 120.82 289.141 122.258" stroke="#263238" stroke-width="0.5" stroke-linecap="round" stroke-linejoin="round"/>
<path d="M285.083 127.492C285.083 127.492 285.083 128.245 286.438 128.245" stroke="#263238" stroke-width="0.5" stroke-linecap="round" stroke-linejoin="round"/>
<path d="M283.245 176.769L282.65 184.134C282.65 184.134 278.531 213.457 278.727 216.823C278.923 220.189 279.367 254.963 279.367 254.963L284.329 255.754L289.902 217.184L297.726 177.989L283.245 176.769Z" fill="#2563EB" stroke="#263238" stroke-miterlimit="10"/>
<path opacity="0.2" d="M283.245 176.769L282.65 184.134C282.65 184.134 278.531 213.457 278.727 216.823C278.923 220.189 279.367 254.963 279.367 254.963L284.329 255.754L289.902 217.184L297.726 177.989L283.245 176.769Z" fill="#263238"/>
<path d="M289.525 203.554C289.525 203.554 287.62 214.767 286.182 220.264C284.744 225.761 284.751 231.243 284.751 237.207C284.751 243.171 282.605 254.165 282.605 254.165" stroke="#263238" stroke-width="0.75" stroke-miterlimit="10"/>
<path d="M293.313 174.962C296.581 173.245 300.09 172.108 301.092 174.39C303.079 178.953 300.7 185.889 300.7 185.889L302.515 217.877L305.836 256.469L300.873 255.671C300.873 255.671 293.253 223.103 292.063 221.115C290.873 219.127 288.998 191.243 288.998 191.243L285.233 187.816" fill="#2563EB"/>
<path d="M293.313 174.962C296.581 173.245 300.09 172.108 301.092 174.39C303.079 178.953 300.7 185.889 300.7 185.889L302.515 217.877L305.836 256.469L300.873 255.671C300.873 255.671 293.253 223.103 292.063 221.115C290.873 219.127 288.998 191.243 288.998 191.243L285.233 187.816" stroke="#263238" stroke-miterlimit="10"/>
<g opacity="0.2">
<path d="M293.313 174.962C296.581 173.245 300.09 172.108 301.092 174.39C303.079 178.953 300.7 185.889 300.7 185.889L302.515 217.877L305.836 256.469L300.873 255.671C300.873 255.671 293.253 223.103 292.063 221.115C290.873 219.127 288.998 191.243 288.998 191.243L285.233 187.816" fill="#263238"/>
</g>
<path d="M297.184 199.194C297.297 206.612 298.05 210.181 298.637 212.139C299.352 214.526 299.111 219.059 299.111 221.175C299.111 223.291 298.155 220.701 300.309 230.49C302.462 240.279 303.885 253.879 303.885 253.879" stroke="#263238" stroke-width="0.75" stroke-miterlimit="10"/>
<path d="M297.184 183.027C297.184 183.027 297.417 182.545 297.184 193.765C297.184 194.368 297.184 194.947 297.184 195.512" stroke="#263238" stroke-width="0.75" stroke-miterlimit="10"/>
<path d="M286.167 180.896L286.009 184.254L285.233 186.589L286.393 187.944" stroke="#263238" stroke-width="0.75" stroke-linecap="round" stroke-linejoin="round"/>
<path d="M284.646 182.899C284.646 182.899 286.589 184.842 291.634 184.254" stroke="#263238" stroke-width="0.75" stroke-linecap="round" stroke-linejoin="round"/>
<path d="M296.566 181.22C300.331 180.467 300.572 179.428 301.875 178.554C301.899 177.13 301.644 175.715 301.122 174.39C300.136 172.131 296.604 173.245 293.343 174.962L291.762 177.462L283.275 176.769L283.004 180.098C287.362 181.593 292.023 181.978 296.566 181.22Z" fill="#263238"/>
<path d="M284.096 179.074L284.013 180.399L286.167 180.896L286.332 179.157L284.096 179.074Z" fill="white" stroke="#263238" stroke-width="0.75" stroke-miterlimit="10"/>
<path d="M299.126 181.039L298.765 177.741L299.857 177.379L300.406 180.309" fill="#2563EB"/>
<path d="M299.126 181.039L298.765 177.741L299.857 177.379L300.406 180.309" stroke="#263238" stroke-miterlimit="10"/>
<path d="M290.707 182.139L289.977 178.291H291.807L292.537 181.589" fill="#2563EB"/>
<path d="M290.707 182.139L289.977 178.291H291.807L292.537 181.589" stroke="#263238" stroke-miterlimit="10"/>
<g opacity="0.2">
<path d="M299.126 181.039L298.765 177.741L299.857 177.379L300.406 180.309" fill="#263238"/>
<path d="M290.707 182.139L289.977 178.291H291.807L292.537 181.589" fill="#263238"/>
</g>
<path d="M282.274 147.582C282.274 147.582 281.649 151.762 279.774 158.878C277.899 165.994 276.009 174.525 276.009 174.525L277.055 178.908L280.181 174.315L282.274 147.582Z" fill="#263238" stroke="#263238" stroke-miterlimit="10"/>
<path d="M287.492 141.536C287.492 141.536 283.11 142.575 282.696 144.661C282.472 145.621 282.331 146.598 282.274 147.582L288.953 142.161L297.304 138.817L287.492 141.536Z" fill="#263238" stroke="#263238" stroke-miterlimit="10"/>
<path d="M288.69 139.924C288.69 139.924 285.128 143.953 283.712 145.609C282.297 147.266 282.289 165.045 282.289 167.658C282.289 170.271 280.873 177.364 283.238 178.788C285.602 180.211 300.068 179.736 301.491 177.364C302.914 174.992 303.856 146.558 303.622 143.953C303.445 142.784 302.984 141.676 302.281 140.726C301.577 139.776 300.652 139.012 299.586 138.501C297.937 137.74 288.69 139.924 288.69 139.924Z" fill="white"/>
<mask id="mask9_50_1587" style="mask-type:luminance" maskUnits="userSpaceOnUse" x="281" y="138" width="23" height="42">
<path d="M288.69 139.924C288.69 139.924 285.128 143.953 283.712 145.609C282.297 147.266 282.289 165.045 282.289 167.658C282.289 170.271 280.873 177.364 283.238 178.788C285.602 180.211 300.068 179.736 301.491 177.364C302.914 174.992 303.856 146.558 303.622 143.953C303.445 142.784 302.984 141.676 302.281 140.726C301.577 139.776 300.652 139.012 299.586 138.501C297.937 137.74 288.69 139.924 288.69 139.924Z" fill="white"/>
</mask>
<g mask="url(#mask9_50_1587)">
<g style="mix-blend-mode:multiply" opacity="0.5">
<path d="M299.586 138.501C299.389 138.421 299.181 138.376 298.969 138.365L297.945 138.9C299.668 140.312 300.854 142.275 301.303 144.457C301.779 147.628 301.736 150.856 301.175 154.013C300.663 157.5 292.395 154.013 293.946 155.308C295.497 156.604 301.303 158.795 301.567 159.955C301.83 161.114 298.69 163.049 297.561 163.185C296.431 163.321 298.314 165.896 299.496 168.087C300.678 170.278 300.249 173.358 297.561 175.452C294.872 177.545 288.63 178.577 285.934 178.682C285.06 178.682 284.518 178.908 284.353 179.164C288.494 180.09 300.219 179.488 301.491 177.364C302.915 174.992 303.856 146.558 303.622 143.953C303.445 142.784 302.984 141.676 302.281 140.726C301.578 139.776 300.652 139.012 299.586 138.501Z" fill="#2563EB"/>
</g>
</g>
<path d="M288.69 139.924C288.69 139.924 285.128 143.953 283.712 145.609C282.297 147.266 282.289 165.045 282.289 167.658C282.289 170.271 280.873 177.364 283.238 178.788C285.602 180.211 300.068 179.736 301.491 177.364C302.914 174.992 303.856 146.558 303.622 143.953C303.445 142.784 302.984 141.676 302.281 140.726C301.577 139.776 300.652 139.012 299.586 138.501C297.937 137.74 288.69 139.924 288.69 139.924Z" stroke="#263238" stroke-miterlimit="10"/>
<path d="M295.971 157.959C292.153 156.769 288.81 153.441 288.81 153.441C289.657 157.396 291.957 160.889 295.256 163.23" fill="white"/>
<path d="M295.971 157.959C292.153 156.769 288.81 153.441 288.81 153.441C289.657 157.396 291.957 160.889 295.256 163.23" stroke="#263238" stroke-width="0.75" stroke-linecap="round" stroke-linejoin="round"/>
<path d="M298.878 135.896L287.5 138.501L286.792 141.822L299.586 138.501L298.878 135.896Z" fill="white" stroke="#263238" stroke-miterlimit="10"/>
<path d="M284.992 260.724L284.33 255.724L279.367 254.933L275.233 257.877L271.528 259.91V260.724H284.992Z" fill="#263238" stroke="#263238" stroke-miterlimit="10"/>
<path d="M306.453 261.115L305.836 256.469L300.873 255.671L296.739 258.615L293.034 260.656V261.115H306.453Z" fill="#263238" stroke="#263238" stroke-miterlimit="10"/>
<path d="M263.592 114.103L260.534 112.333C260.534 112.333 259.344 112.19 259.857 113.516L262.914 115.873" fill="white"/>
<path d="M263.591 114.103L260.534 112.333C260.534 112.333 259.344 112.19 259.857 113.516L262.914 115.873" stroke="#263238" stroke-linecap="round" stroke-linejoin="round"/>
<path d="M263.139 118.704C262.996 118.341 262.783 118.008 262.514 117.725L261.942 117.108L258.832 113.252C258.832 113.252 257.868 112.605 258.079 114.005L260.007 117.77L256.581 114.555C256.581 114.555 255.933 114.02 255.933 114.773C255.933 115.526 259.043 118.847 259.043 118.847L255.609 117.236C255.609 117.236 254.856 117.77 255.398 118.305C255.941 118.84 258.825 119.916 258.825 119.916L256.257 119.811C256.257 119.811 255.504 120.451 256.038 120.669C256.573 120.888 259.578 121.52 259.578 121.52C259.959 121.845 260.395 122.1 260.865 122.273L261.618 123.666L264.502 122.213L263.139 118.704Z" fill="white" stroke="#263238" stroke-linecap="round" stroke-linejoin="round"/>
<path d="M293.93 152.131L276.746 156.159C275.867 156.314 274.961 156.16 274.182 155.722C273.404 155.284 272.801 154.589 272.477 153.757L261.633 123.636L264.517 122.183L276.498 144.375C276.77 144.882 277.198 145.289 277.718 145.534C278.239 145.78 278.825 145.851 279.39 145.737L292.53 142.025" fill="white"/>
<path d="M293.93 152.131L276.746 156.159C275.867 156.314 274.961 156.16 274.182 155.722C273.404 155.284 272.801 154.589 272.477 153.757L261.633 123.636L264.517 122.183L276.498 144.375C276.77 144.882 277.198 145.289 277.718 145.534C278.239 145.78 278.825 145.851 279.39 145.737L292.53 142.025" stroke="#263238" stroke-miterlimit="10"/>
<path d="M266.136 125.022L262.793 126.694" stroke="#263238" stroke-width="0.75" stroke-miterlimit="10"/>
<path d="M291.792 119.826C291.792 119.826 289.962 121.656 290.873 123.026C291.413 123.818 291.825 124.69 292.093 125.609C292.093 125.609 291.34 127.439 291.942 127.439C292.545 127.439 292.244 126.069 293.313 126.377C294.382 126.686 295.444 128.508 294.533 129.118C293.851 129.499 293.129 129.802 292.379 130.022C292.284 130.051 292.199 130.108 292.135 130.184C292.071 130.261 292.031 130.355 292.02 130.454C292.009 130.553 292.027 130.654 292.072 130.743C292.117 130.832 292.187 130.906 292.274 130.956C293.264 131.625 294.405 132.039 295.595 132.161C296.567 132.181 297.539 132.08 298.486 131.859C298.486 131.859 301.498 127.748 303.667 126.679C305.836 125.609 304.887 120.737 304.887 120.127C304.887 119.517 302.756 118.147 302.756 118.147C302.756 118.147 303.366 116.776 300.625 113.734C297.884 110.692 292.703 110.074 292.552 111.144C292.499 111.427 292.529 111.719 292.637 111.986C292.745 112.253 292.927 112.483 293.162 112.65C293.162 112.65 288.591 110.669 286.46 112.8C284.329 114.931 291.792 119.826 291.792 119.826Z" fill="#263238" stroke="#263238" stroke-miterlimit="10"/>
<path d="M291.792 119.826C291.792 119.826 295.497 124.344 300.986 124.781" stroke="white" stroke-width="0.5" stroke-linecap="round" stroke-linejoin="round"/>
<path d="M290.481 121.204C290.481 121.204 292.206 126.219 299.337 127.65" stroke="white" stroke-width="0.5" stroke-linecap="round" stroke-linejoin="round"/>
</svg>
