<svg width="200" height="153" viewBox="0 0 200 153" fill="none" xmlns="http://www.w3.org/2000/svg">
<path d="M200 134.34H0V134.44H200V134.34Z" fill="#E0E0E0"/>
<path d="M151.732 138.028H137.972V138.128H151.732V138.028Z" fill="#E0E0E0"/>
<path d="M167.92 137.744H160.176V137.844H167.92V137.744Z" fill="#E0E0E0"/>
<path d="M98.9361 137.98H88.6641V138.08H98.9361V137.98Z" fill="#E0E0E0"/>
<path d="M106.356 139.4H99.34V139.5H106.356V139.4Z" fill="#E0E0E0"/>
<path d="M57.868 136.968H36.672V137.068H57.868V136.968Z" fill="#E0E0E0"/>
<path d="M94.7999 116.5H17.5639C16.9589 116.499 16.379 116.258 15.9515 115.83C15.524 115.401 15.2839 114.821 15.2839 114.216V5.644C15.2892 5.04241 15.5316 4.4672 15.9585 4.04329C16.3854 3.61939 16.9623 3.38104 17.5639 3.38H94.7999C95.4057 3.38 95.9866 3.62064 96.415 4.04897C96.8433 4.47731 97.0839 5.05825 97.0839 5.664V114.216C97.0839 114.822 96.8433 115.403 96.415 115.831C95.9866 116.259 95.4057 116.5 94.7999 116.5ZM17.5639 3.46001C16.9854 3.46106 16.4309 3.69163 16.0222 4.1011C15.6135 4.51056 15.3839 5.06546 15.3839 5.644V114.216C15.3839 114.795 15.6135 115.349 16.0222 115.759C16.4309 116.168 16.9854 116.399 17.5639 116.4H94.7999C95.3789 116.399 95.9337 116.169 96.3431 115.759C96.7524 115.35 96.9829 114.795 96.9839 114.216V5.644C96.9829 5.0651 96.7524 4.5102 96.3431 4.10085C95.9337 3.6915 95.3789 3.46106 94.7999 3.46001H17.5639Z" fill="#E0E0E0"/>
<path d="M181.324 116.5H104.084C103.479 116.499 102.898 116.258 102.47 115.83C102.042 115.402 101.801 114.821 101.8 114.216V5.644C101.806 5.04205 102.05 4.46684 102.477 4.04304C102.905 3.61925 103.482 3.38102 104.084 3.38H181.324C181.925 3.38209 182.501 3.6209 182.927 4.0447C183.353 4.46849 183.595 5.04311 183.6 5.644V114.216C183.6 114.82 183.361 115.4 182.934 115.828C182.507 116.256 181.928 116.498 181.324 116.5ZM104.084 3.46001C103.505 3.46106 102.95 3.6915 102.541 4.10085C102.132 4.5102 101.901 5.0651 101.9 5.644V114.216C101.901 114.795 102.132 115.35 102.541 115.759C102.95 116.169 103.505 116.399 104.084 116.4H181.324C181.903 116.399 182.458 116.169 182.867 115.759C183.277 115.35 183.507 114.795 183.508 114.216V5.644C183.507 5.0651 183.277 4.5102 182.867 4.10085C182.458 3.6915 181.903 3.46106 181.324 3.46001H104.084Z" fill="#E0E0E0"/>
<path d="M173.612 13.088H113.332V64.912H173.612V13.088Z" fill="#E0E0E0"/>
<path d="M174.952 13.088H114.672V64.912H174.952V13.088Z" fill="#F0F0F0"/>
<path d="M172.548 62.48V15.52L117.076 15.52V62.48H172.548Z" fill="#FAFAFA"/>
<path d="M154.82 62.48V15.52H151.196V62.48H154.82Z" fill="#E0E0E0"/>
<path d="M135.756 62.48V15.52H132.132V62.48H135.756Z" fill="#E0E0E0"/>
<path d="M156.096 64.02V13.708H152.472V64.02H156.096Z" fill="#F0F0F0"/>
<path d="M137.028 64.024V13.712H133.404V64.024H137.028Z" fill="#F0F0F0"/>
<path d="M172.548 62.476V15.516H171.536V62.476H172.548Z" fill="#E0E0E0"/>
<path d="M70.9361 54.016C70.9361 54.016 63.6001 41.38 73.7801 31.304C73.7801 31.304 76.4361 33.036 76.3961 35.364C76.3561 37.692 73.5481 38.28 74.1521 40.224C74.7561 42.168 77.4001 44.068 75.6641 45.676C73.9281 47.284 75.9441 48.708 75.8281 50.676C75.7121 52.644 70.9361 54.016 70.9361 54.016Z" fill="#E0E0E0"/>
<path d="M72.088 56.084C72.088 56.084 75.064 41.772 62.232 35.428C62.232 35.428 60.256 37.908 61.032 40.104C61.808 42.3 64.652 41.972 64.692 44.008C64.732 46.044 62.824 48.684 64.976 49.66C67.128 50.636 65.668 52.628 66.4 54.46C67.132 56.292 72.088 56.084 72.088 56.084Z" fill="#E6E6E6"/>
<path d="M65.556 52.448C65.556 52.448 65.684 64.804 70.624 64.804C75.564 64.804 75.688 52.448 75.688 52.448H65.556Z" fill="#F0F0F0"/>
<path d="M35.876 60.156C35.876 60.156 36.152 64.804 46.7 64.804C57.248 64.804 57.528 60.156 57.528 60.156H35.876Z" fill="#E6E6E6"/>
<path d="M147.08 88.18H141.512C140.818 88.18 140.256 88.7423 140.256 89.436V98.644C140.256 99.3377 140.818 99.9 141.512 99.9H147.08C147.774 99.9 148.336 99.3377 148.336 98.644V89.436C148.336 88.7423 147.774 88.18 147.08 88.18Z" fill="#F0F0F0"/>
<path d="M161.848 92.012H158.1C157.634 92.012 157.256 92.3899 157.256 92.856V99.056C157.256 99.5222 157.634 99.9 158.1 99.9H161.848C162.314 99.9 162.692 99.5222 162.692 99.056V92.856C162.692 92.3899 162.314 92.012 161.848 92.012Z" fill="#E6E6E6"/>
<path d="M162.408 91.248H157.54C157.383 91.248 157.256 91.3752 157.256 91.532V91.852C157.256 92.0089 157.383 92.136 157.54 92.136H162.408C162.565 92.136 162.692 92.0089 162.692 91.852V91.532C162.692 91.3752 162.565 91.248 162.408 91.248Z" fill="#F0F0F0"/>
<path d="M127.368 93.38C127.368 93.38 127.568 99.9 135.204 99.9C142.84 99.9 143.044 93.38 143.044 93.38H127.368Z" fill="#E6E6E6"/>
<path d="M108.376 84.768H119.932V82.488H108.376V84.768Z" fill="#E0E0E0"/>
<path d="M177.384 82.492H119.932V84.772H177.384V82.492Z" fill="#F0F0F0"/>
<path d="M108.376 102.18H119.932V99.9H108.376V102.18Z" fill="#E0E0E0"/>
<path d="M177.384 99.9H119.932V102.18H177.384V99.9Z" fill="#F0F0F0"/>
<path d="M112.54 84.768H110.408V134.336H112.54V84.768Z" fill="#E0E0E0"/>
<path d="M122.064 84.768H119.932V134.336H122.064V84.768Z" fill="#F0F0F0"/>
<path d="M169.992 84.768H167.86V134.336H169.992V84.768Z" fill="#E0E0E0"/>
<path d="M177.384 84.768H175.252V134.336H177.384V84.768Z" fill="#F0F0F0"/>
<path d="M35.876 67.704H24.948V131.34H35.876V67.704Z" fill="#E6E6E6"/>
<path d="M80.936 131.336H27.048V134.34H80.936V131.336Z" fill="#E6E6E6"/>
<path d="M35.876 131.336H83.032L83.032 67.7H35.876L35.876 131.336Z" fill="#F0F0F0"/>
<path d="M40.172 107.292H78.736V91.748H40.172V107.292Z" fill="#E6E6E6"/>
<path d="M40.172 125.668H78.736V110.124H40.172V125.668Z" fill="#E6E6E6"/>
<path d="M63.7839 93.452H55.1239C54.8421 93.4509 54.5721 93.3385 54.3727 93.1392C54.1734 92.9399 54.061 92.6699 54.0599 92.388C54.0599 92.1054 54.1719 91.8344 54.3713 91.6342C54.5708 91.4341 54.8414 91.3211 55.1239 91.32H63.7839C64.0665 91.3211 64.3371 91.4341 64.5365 91.6342C64.736 91.8344 64.8479 92.1054 64.8479 92.388C64.8469 92.6699 64.7344 92.9399 64.5351 93.1392C64.3358 93.3385 64.0658 93.4509 63.7839 93.452Z" fill="#F0F0F0"/>
<path d="M40.172 88.912H78.736V73.368H40.172V88.912Z" fill="#E6E6E6"/>
<path d="M63.7839 75.076H55.1239C54.8414 75.075 54.5708 74.962 54.3713 74.7618C54.1719 74.5616 54.0599 74.2906 54.0599 74.008C54.061 73.7262 54.1734 73.4561 54.3727 73.2568C54.5721 73.0575 54.8421 72.9451 55.1239 72.944H63.7839C64.0658 72.9451 64.3358 73.0575 64.5351 73.2568C64.7344 73.4561 64.8469 73.7262 64.8479 74.008C64.8479 74.2906 64.736 74.5616 64.5365 74.7618C64.3371 74.962 64.0665 75.075 63.7839 75.076Z" fill="#F0F0F0"/>
<path d="M63.7839 111.828H55.1239C54.8421 111.827 54.5721 111.715 54.3727 111.515C54.1734 111.316 54.061 111.046 54.0599 110.764C54.0599 110.481 54.1719 110.21 54.3713 110.01C54.5708 109.81 54.8414 109.697 55.1239 109.696H63.7839C64.0665 109.697 64.3371 109.81 64.5365 110.01C64.736 110.21 64.8479 110.481 64.8479 110.764C64.8469 111.046 64.7344 111.316 64.5351 111.515C64.3358 111.715 64.0658 111.827 63.7839 111.828Z" fill="#F0F0F0"/>
<path d="M84.488 64.804H35.876V67.704H84.488V64.804Z" fill="#E6E6E6"/>
<path d="M23.42 67.7H35.876V64.8H23.42V67.7Z" fill="#E0E0E0"/>
<path d="M48.056 15.52H30.376V34.936H48.056V15.52Z" fill="#E6E6E6"/>
<path d="M49.972 15.52H31.708V34.936H49.972V15.52Z" fill="#F0F0F0"/>
<path d="M48.4401 33.404V17.048H33.2361V33.404H48.4401Z" fill="#FAFAFA"/>
<path d="M44.756 29.44V21.012H36.924V29.44H44.756Z" fill="#F0F0F0"/>
<path d="M66.696 9.78802H53.288V24.192H66.696V9.78802Z" fill="#E6E6E6"/>
<path d="M68.12 9.78802H54.572V24.192H68.12V9.78802Z" fill="#F0F0F0"/>
<path d="M66.984 23.056V10.924H55.708V23.056H66.984Z" fill="#FAFAFA"/>
<path d="M61.344 13.92L58.26 19.264H64.428L61.344 13.92Z" fill="#F0F0F0"/>
<path d="M100 152.404C142.833 152.404 177.556 150.377 177.556 147.876C177.556 145.375 142.833 143.348 100 143.348C57.167 143.348 22.444 145.375 22.444 147.876C22.444 150.377 57.167 152.404 100 152.404Z" fill="#F5F5F5"/>
<path d="M167.92 39.708H128.68C126.61 39.708 124.932 41.386 124.932 43.456V54.128C124.932 56.198 126.61 57.876 128.68 57.876H167.92C169.99 57.876 171.668 56.198 171.668 54.128V43.456C171.668 41.386 169.99 39.708 167.92 39.708Z" fill="#111827"/>
<path d="M160.136 42.772H129.484C129.122 42.772 128.828 43.0657 128.828 43.428V44.148C128.828 44.5103 129.122 44.804 129.484 44.804H160.136C160.498 44.804 160.792 44.5103 160.792 44.148V43.428C160.792 43.0657 160.498 42.772 160.136 42.772Z" fill="#111827"/>
<path d="M150.428 47.668H129.484C129.122 47.668 128.828 47.9617 128.828 48.324V49.044C128.828 49.4063 129.122 49.7 129.484 49.7H150.428C150.79 49.7 151.084 49.4063 151.084 49.044V48.324C151.084 47.9617 150.79 47.668 150.428 47.668Z" fill="#111827"/>
<path d="M144.812 52.564H129.484C129.122 52.564 128.828 52.8577 128.828 53.22V53.94C128.828 54.3023 129.122 54.596 129.484 54.596H144.812C145.174 54.596 145.468 54.3023 145.468 53.94V53.22C145.468 52.8577 145.174 52.564 144.812 52.564Z" fill="#111827"/>
<path d="M163.808 52.564H148.48C148.118 52.564 147.824 52.8577 147.824 53.22V53.94C147.824 54.3023 148.118 54.596 148.48 54.596H163.808C164.17 54.596 164.464 54.3023 164.464 53.94V53.22C164.464 52.8577 164.17 52.564 163.808 52.564Z" fill="#111827"/>
<g opacity="0.5">
<path d="M160.136 42.772H129.484C129.122 42.772 128.828 43.0657 128.828 43.428V44.148C128.828 44.5103 129.122 44.804 129.484 44.804H160.136C160.498 44.804 160.792 44.5103 160.792 44.148V43.428C160.792 43.0657 160.498 42.772 160.136 42.772Z" fill="white"/>
<path d="M150.428 47.668H129.484C129.122 47.668 128.828 47.9617 128.828 48.324V49.044C128.828 49.4063 129.122 49.7 129.484 49.7H150.428C150.79 49.7 151.084 49.4063 151.084 49.044V48.324C151.084 47.9617 150.79 47.668 150.428 47.668Z" fill="white"/>
<path d="M144.812 52.564H129.484C129.122 52.564 128.828 52.8577 128.828 53.22V53.94C128.828 54.3023 129.122 54.596 129.484 54.596H144.812C145.174 54.596 145.468 54.3023 145.468 53.94V53.22C145.468 52.8577 145.174 52.564 144.812 52.564Z" fill="white"/>
<path d="M163.808 52.564H148.48C148.118 52.564 147.824 52.8577 147.824 53.22V53.94C147.824 54.3023 148.118 54.596 148.48 54.596H163.808C164.17 54.596 164.464 54.3023 164.464 53.94V53.22C164.464 52.8577 164.17 52.564 163.808 52.564Z" fill="white"/>
</g>
<path d="M136.488 35.472H91.948C88.9127 35.472 86.452 37.9326 86.452 40.968V56.616C86.452 59.6513 88.9127 62.112 91.948 62.112H136.488C139.523 62.112 141.984 59.6513 141.984 56.616V40.968C141.984 37.9326 139.523 35.472 136.488 35.472Z" fill="#111827"/>
<path d="M138.064 39.964H93.1279C92.5955 39.964 92.1639 40.3956 92.1639 40.928V41.98C92.1639 42.5124 92.5955 42.944 93.1279 42.944H138.064C138.596 42.944 139.028 42.5124 139.028 41.98V40.928C139.028 40.3956 138.596 39.964 138.064 39.964Z" fill="#111827"/>
<path d="M123.828 47.144H93.1279C92.5955 47.144 92.1639 47.5756 92.1639 48.108V49.16C92.1639 49.6924 92.5955 50.124 93.1279 50.124H123.828C124.36 50.124 124.792 49.6924 124.792 49.16V48.108C124.792 47.5756 124.36 47.144 123.828 47.144Z" fill="#111827"/>
<path d="M115.596 54.324H93.1279C92.5955 54.324 92.1639 54.7556 92.1639 55.288V56.34C92.1639 56.8724 92.5955 57.304 93.1279 57.304H115.596C116.128 57.304 116.56 56.8724 116.56 56.34V55.288C116.56 54.7556 116.128 54.324 115.596 54.324Z" fill="#111827"/>
<path d="M139.7 54.324H120.98C120.448 54.324 120.016 54.7556 120.016 55.288V56.34C120.016 56.8724 120.448 57.304 120.98 57.304H139.7C140.232 57.304 140.664 56.8724 140.664 56.34V55.288C140.664 54.7556 140.232 54.324 139.7 54.324Z" fill="#111827"/>
<g opacity="0.5">
<path d="M138.064 39.964H93.1279C92.5955 39.964 92.1639 40.3956 92.1639 40.928V41.98C92.1639 42.5124 92.5955 42.944 93.1279 42.944H138.064C138.596 42.944 139.028 42.5124 139.028 41.98V40.928C139.028 40.3956 138.596 39.964 138.064 39.964Z" fill="white"/>
<path d="M123.828 47.144H93.1279C92.5955 47.144 92.1639 47.5756 92.1639 48.108V49.16C92.1639 49.6924 92.5955 50.124 93.1279 50.124H123.828C124.36 50.124 124.792 49.6924 124.792 49.16V48.108C124.792 47.5756 124.36 47.144 123.828 47.144Z" fill="white"/>
<path d="M115.596 54.324H93.1279C92.5955 54.324 92.1639 54.7556 92.1639 55.288V56.34C92.1639 56.8724 92.5955 57.304 93.1279 57.304H115.596C116.128 57.304 116.56 56.8724 116.56 56.34V55.288C116.56 54.7556 116.128 54.324 115.596 54.324Z" fill="white"/>
<path d="M139.7 54.324H120.98C120.447 54.324 120.016 54.7556 120.016 55.288V56.34C120.016 56.8724 120.447 57.304 120.98 57.304H139.7C140.232 57.304 140.664 56.8724 140.664 56.34V55.288C140.664 54.7556 140.232 54.324 139.7 54.324Z" fill="white"/>
</g>
<path d="M108.796 66.94H87.344C85.9257 66.94 84.776 68.0897 84.776 69.508V101.644C84.776 103.062 85.9257 104.212 87.344 104.212H108.796C110.214 104.212 111.364 103.062 111.364 101.644V69.508C111.364 68.0897 110.214 66.94 108.796 66.94Z" fill="#111827"/>
<path opacity="0.4" d="M108.796 66.94H87.344C85.9257 66.94 84.776 68.0897 84.776 69.508V101.644C84.776 103.062 85.9257 104.212 87.344 104.212H108.796C110.214 104.212 111.364 103.062 111.364 101.644V69.508C111.364 68.0897 110.214 66.94 108.796 66.94Z" fill="black"/>
<path d="M107.812 70.828H88.3239C88.0632 70.828 87.8519 71.0393 87.8519 71.3V72.008C87.8519 72.2687 88.0632 72.48 88.3239 72.48H107.812C108.073 72.48 108.284 72.2687 108.284 72.008V71.3C108.284 71.0393 108.073 70.828 107.812 70.828Z" fill="#FAFAFA"/>
<path d="M101.608 74.804H88.3239C88.0632 74.804 87.8519 75.0153 87.8519 75.276V75.984C87.8519 76.2447 88.0632 76.456 88.3239 76.456H101.608C101.869 76.456 102.08 76.2447 102.08 75.984V75.276C102.08 75.0153 101.869 74.804 101.608 74.804Z" fill="#FAFAFA"/>
<path d="M107.812 78.784H88.3239C88.0632 78.784 87.8519 78.9953 87.8519 79.256V79.964C87.8519 80.2247 88.0632 80.436 88.3239 80.436H107.812C108.073 80.436 108.284 80.2247 108.284 79.964V79.256C108.284 78.9953 108.073 78.784 107.812 78.784Z" fill="#FAFAFA"/>
<path d="M95.5679 82.76H88.3239C88.0632 82.76 87.8519 82.9713 87.8519 83.232V83.94C87.8519 84.2007 88.0632 84.412 88.3239 84.412H95.5679C95.8286 84.412 96.0399 84.2007 96.0399 83.94V83.232C96.0399 82.9713 95.8286 82.76 95.5679 82.76Z" fill="#FAFAFA"/>
<path d="M105.704 82.76H98.4599C98.1992 82.76 97.9879 82.9713 97.9879 83.232V83.94C97.9879 84.2007 98.1992 84.412 98.4599 84.412H105.704C105.965 84.412 106.176 84.2007 106.176 83.94V83.232C106.176 82.9713 105.965 82.76 105.704 82.76Z" fill="#FAFAFA"/>
<path d="M107.812 86.74H88.3239C88.0632 86.74 87.8519 86.9513 87.8519 87.212V87.92C87.8519 88.1807 88.0632 88.392 88.3239 88.392H107.812C108.073 88.392 108.284 88.1807 108.284 87.92V87.212C108.284 86.9513 108.073 86.74 107.812 86.74Z" fill="#FAFAFA"/>
<path d="M107.812 90.716H88.3239C88.0632 90.716 87.8519 90.9273 87.8519 91.188V91.896C87.8519 92.1567 88.0632 92.368 88.3239 92.368H107.812C108.073 92.368 108.284 92.1567 108.284 91.896V91.188C108.284 90.9273 108.073 90.716 107.812 90.716Z" fill="#FAFAFA"/>
<path d="M104.356 94.696H88.3239C88.0632 94.696 87.8519 94.9073 87.8519 95.168V95.876C87.8519 96.1367 88.0632 96.348 88.3239 96.348H104.356C104.617 96.348 104.828 96.1367 104.828 95.876V95.168C104.828 94.9073 104.617 94.696 104.356 94.696Z" fill="#FAFAFA"/>
<path d="M95.8039 98.672H88.3239C88.0632 98.672 87.8519 98.8833 87.8519 99.144V99.852C87.8519 100.113 88.0632 100.324 88.3239 100.324H95.8039C96.0646 100.324 96.2759 100.113 96.2759 99.852V99.144C96.2759 98.8833 96.0646 98.672 95.8039 98.672Z" fill="#FAFAFA"/>
<path d="M114.6 66.712H84.844L98 77.18L118.172 84.78V70.276C118.17 69.33 117.793 68.4235 117.123 67.7554C116.453 67.0872 115.546 66.712 114.6 66.712Z" fill="#111827"/>
<path opacity="0.4" d="M114.6 66.712H84.844L98 77.18L118.172 84.78V70.276C118.17 69.33 117.793 68.4235 117.123 67.7554C116.453 67.0872 115.546 66.712 114.6 66.712Z" fill="black"/>
<path d="M113.3 72.104H91.528C91.2011 72.104 90.936 72.369 90.936 72.696V73.8C90.936 74.127 91.2011 74.392 91.528 74.392H113.3C113.627 74.392 113.892 74.127 113.892 73.8V72.696C113.892 72.369 113.627 72.104 113.3 72.104Z" fill="#FAFAFA"/>
<path d="M166.06 95.048V74.12C166.06 72.5162 164.76 71.216 163.156 71.216H126.816C125.212 71.216 123.912 72.5162 123.912 74.12V95.048C123.912 96.6518 125.212 97.952 126.816 97.952H163.156C164.76 97.952 166.06 96.6518 166.06 95.048Z" fill="#111827"/>
<path d="M172.696 88.416V67.488C172.696 65.8842 171.396 64.584 169.792 64.584H133.452C131.848 64.584 130.548 65.8842 130.548 67.488V88.416C130.548 90.0198 131.848 91.32 133.452 91.32H169.792C171.396 91.32 172.696 90.0198 172.696 88.416Z" fill="#111827"/>
<path opacity="0.5" d="M172.696 88.416V67.488C172.696 65.8842 171.396 64.584 169.792 64.584H133.452C131.848 64.584 130.548 65.8842 130.548 67.488V88.416C130.548 90.0198 131.848 91.32 133.452 91.32H169.792C171.396 91.32 172.696 90.0198 172.696 88.416Z" fill="white"/>
<path d="M169.008 81.244V68.36C169.008 67.6464 168.429 67.068 167.716 67.068H155.84C155.126 67.068 154.548 67.6464 154.548 68.36V81.244C154.548 81.9575 155.126 82.536 155.84 82.536H167.716C168.429 82.536 169.008 81.9575 169.008 81.244Z" fill="#111827"/>
<path opacity="0.7" d="M169.008 81.244V68.36C169.008 67.6464 168.429 67.068 167.716 67.068H155.84C155.126 67.068 154.548 67.6464 154.548 68.36V81.244C154.548 81.9575 155.126 82.536 155.84 82.536H167.716C168.429 82.536 169.008 81.9575 169.008 81.244Z" fill="white"/>
<path d="M152.284 87.476V77.604C152.284 77.0561 151.84 76.612 151.292 76.612H142.192C141.644 76.612 141.2 77.0561 141.2 77.604V87.476C141.2 88.0239 141.644 88.468 142.192 88.468H151.292C151.84 88.468 152.284 88.0239 152.284 87.476Z" fill="#111827"/>
<path opacity="0.3" d="M152.284 87.476V77.604C152.284 77.0561 151.84 76.612 151.292 76.612H142.192C141.644 76.612 141.2 77.0561 141.2 77.604V87.476C141.2 88.0239 141.644 88.468 142.192 88.468H151.292C151.84 88.468 152.284 88.0239 152.284 87.476Z" fill="white"/>
<path d="M146.74 24.884V19.552C146.74 17.9216 145.418 16.6 143.788 16.6L46.136 16.6C44.5056 16.6 43.184 17.9216 43.184 19.552V24.884C43.184 26.5143 44.5056 27.836 46.136 27.836L143.788 27.836C145.418 27.836 146.74 26.5143 146.74 24.884Z" fill="#111827"/>
<path opacity="0.5" d="M146.74 24.884V19.552C146.74 17.9216 145.418 16.6 143.788 16.6L46.136 16.6C44.5056 16.6 43.184 17.9216 43.184 19.552V24.884C43.184 26.5143 44.5056 27.836 46.136 27.836L143.788 27.836C145.418 27.836 146.74 26.5143 146.74 24.884Z" fill="white"/>
<path d="M128.264 29.716V25.848H100.164V29.716H128.264Z" fill="#111827"/>
<path opacity="0.5" d="M128.264 29.716V25.848H100.164V29.716H128.264Z" fill="white"/>
<path d="M156.816 8.284V2.952C156.816 1.32166 155.494 0 153.864 0L56.212 0C54.5817 0 53.26 1.32166 53.26 2.952V8.284C53.26 9.91435 54.5817 11.236 56.212 11.236L153.864 11.236C155.494 11.236 156.816 9.91435 156.816 8.284Z" fill="#111827"/>
<path d="M52.1439 59.084C51.7919 59.884 51.4039 60.748 51.0639 61.592C50.7239 62.436 50.3719 63.304 50.0639 64.168C49.4319 65.8524 48.9252 67.5811 48.5479 69.34L48.4319 69.98L48.3919 70.22C48.3919 70.288 48.3919 70.376 48.3679 70.456C48.3527 70.8455 48.3607 71.2355 48.3919 71.624C48.4679 72.468 48.6039 73.372 48.7919 74.276C49.1279 76.088 49.5559 77.956 49.9919 79.796L47.9399 80.596C46.9833 78.8523 46.1687 77.0345 45.5039 75.16C45.1536 74.1845 44.8703 73.1861 44.6559 72.172C44.5357 71.6109 44.4608 71.0411 44.4319 70.468C44.4319 70.308 44.4319 70.156 44.4319 69.984C44.4319 69.812 44.4319 69.62 44.4599 69.508L44.5399 68.708C44.6594 67.6777 44.8424 66.6558 45.0879 65.648C45.3119 64.648 45.5999 63.676 45.8879 62.716C46.1759 61.756 46.5359 60.812 46.9159 59.884C47.1039 59.42 47.3159 58.96 47.4999 58.5C47.6839 58.04 47.8999 57.6 48.1559 57.108L52.1439 59.084Z" fill="#E4897B"/>
<path d="M49.8839 79.256L51.4439 80.78L48.0399 82.38C48.0399 82.38 47.2159 80.936 47.7879 79.632L49.8839 79.256Z" fill="#E4897B"/>
<path d="M52.7039 83.048L49.8279 84.224L48.0439 82.364L51.4439 80.78L52.7039 83.048Z" fill="#E4897B"/>
<path opacity="0.4" d="M110.964 81.408C105.304 80.7726 99.9602 78.4734 95.6071 74.8011C91.254 71.1288 88.0874 66.2483 86.5076 60.7766C84.9278 55.3049 85.0058 49.4877 86.7317 44.0603C88.4576 38.6329 91.7538 33.8391 96.2038 30.2848C100.654 26.7305 106.058 24.5754 111.732 24.0919C117.407 23.6083 123.098 24.8181 128.085 27.5683C133.072 30.3184 137.132 34.4855 139.751 39.5426C142.37 44.5997 143.431 50.3199 142.8 55.98C142.381 59.7406 141.224 63.3816 139.397 66.6951C137.57 70.0086 135.108 72.9295 132.151 75.291C129.195 77.6524 125.802 79.4081 122.166 80.4577C118.531 81.5073 114.724 81.8302 110.964 81.408Z" fill="#FAFAFA"/>
<path opacity="0.4" d="M131.916 30.096L88.116 65.092C87.932 64.692 87.752 64.292 87.584 63.892C86.4859 61.2802 85.7835 58.5191 85.5 55.7L123.332 25.472C126.438 26.5081 129.342 28.0724 131.916 30.096Z" fill="#FAFAFA"/>
<path opacity="0.4" d="M142.024 45.428L100.844 78.328C96.9318 76.2886 93.5416 73.3761 90.9359 69.816L135.9 33.888C138.798 37.2148 140.894 41.163 142.024 45.428Z" fill="#FAFAFA"/>
<path d="M81.756 41.78L81.376 41.652C82.0341 39.71 82.8613 37.8295 83.848 36.032L84.196 36.224C83.2223 38.0014 82.4058 39.8605 81.756 41.78ZM86.612 32.444L86.288 32.208C89.5752 27.7632 93.8775 24.1686 98.836 21.724L99.016 22.084C94.1138 24.5034 89.8609 28.0595 86.612 32.456V32.444ZM130.448 22.632C129.141 21.9309 127.789 21.3176 126.4 20.796L126.544 20.42C127.946 20.9538 129.312 21.5792 130.632 22.292L130.448 22.632Z" fill="#111827"/>
<path opacity="0.3" d="M81.756 41.78L81.376 41.652C82.0341 39.71 82.8613 37.8295 83.848 36.032L84.196 36.224C83.2223 38.0014 82.4058 39.8605 81.756 41.78ZM86.612 32.444L86.288 32.208C89.5752 27.7632 93.8775 24.1686 98.836 21.724L99.016 22.084C94.1138 24.5034 89.8609 28.0595 86.612 32.456V32.444ZM130.448 22.632C129.141 21.9309 127.789 21.3176 126.4 20.796L126.544 20.42C127.946 20.9538 129.312 21.5792 130.632 22.292L130.448 22.632Z" fill="black"/>
<path d="M143.948 38.076C140.244 30.3941 133.726 24.4322 125.745 21.4261C117.765 18.4199 108.933 18.6002 101.082 21.9296C93.2301 25.2589 86.9609 31.482 83.5737 39.3086C80.1864 47.1353 79.9409 55.9652 82.8879 63.968C80.2159 64.904 77.5759 65.908 74.9519 66.944C71.1679 68.4454 67.4186 70.0134 63.7039 71.648C59.9919 73.292 56.2959 74.968 52.6359 76.72C50.7999 77.58 48.9879 78.488 47.1599 79.368C46.209 79.7766 45.3474 80.3678 44.6239 81.108C44.2324 81.5179 43.8877 81.97 43.5959 82.456C43.24 83.0308 42.9704 83.6548 42.7959 84.308C42.4949 85.4851 42.6251 86.731 43.1629 87.8205C43.7006 88.91 44.6105 89.7711 45.7279 90.248C46.3484 90.5083 47.0031 90.678 47.6719 90.752C48.2368 90.816 48.8071 90.816 49.3719 90.752C50.3984 90.6274 51.3905 90.3026 52.2919 89.796C54.1039 88.88 55.9279 87.996 57.7279 87.056C61.3279 85.22 64.9279 83.304 68.4839 81.36C72.0399 79.416 75.5999 77.38 79.0719 75.292C81.4719 73.84 83.8959 72.356 86.2719 70.804C90.8344 78.0067 97.9931 83.1779 106.265 85.2463C114.536 87.3146 123.286 86.1214 130.702 81.914C138.117 77.7066 143.63 70.8075 146.098 62.6462C148.565 54.485 147.798 45.6872 143.956 38.076H143.948ZM125.764 76.288C121.115 78.5825 115.891 79.4471 110.751 78.7725C105.611 78.0979 100.787 75.9144 96.8877 72.498C92.9887 69.0816 90.1903 64.5858 88.8463 59.5791C87.5023 54.5723 87.6731 49.2795 89.3371 44.3698C91.001 39.4602 94.0835 35.1541 98.1946 31.9962C102.306 28.8383 107.261 26.9703 112.434 26.6285C117.606 26.2866 122.764 27.4863 127.255 30.0757C131.746 32.6651 135.368 36.528 137.664 41.176C139.188 44.2628 140.09 47.6197 140.317 51.0549C140.544 54.4901 140.092 57.9364 138.987 61.197C137.882 64.4576 136.145 67.4685 133.877 70.0578C131.608 72.6472 128.851 74.7642 125.764 76.288Z" fill="#111827"/>
<path opacity="0.3" d="M143.948 38.076C140.244 30.3941 133.726 24.4322 125.745 21.4261C117.765 18.4199 108.933 18.6002 101.082 21.9296C93.2301 25.2589 86.9609 31.482 83.5737 39.3086C80.1864 47.1353 79.9409 55.9652 82.8879 63.968C80.2159 64.904 77.5759 65.908 74.9519 66.944C71.1679 68.4454 67.4186 70.0134 63.7039 71.648C59.9919 73.292 56.2959 74.968 52.6359 76.72C50.7999 77.58 48.9879 78.488 47.1599 79.368C46.209 79.7766 45.3474 80.3678 44.6239 81.108C44.2324 81.5179 43.8877 81.97 43.5959 82.456C43.24 83.0308 42.9704 83.6548 42.7959 84.308C42.4949 85.4851 42.6251 86.731 43.1629 87.8205C43.7006 88.91 44.6105 89.7711 45.7279 90.248C46.3484 90.5083 47.0031 90.678 47.6719 90.752C48.2368 90.816 48.8071 90.816 49.3719 90.752C50.3984 90.6274 51.3905 90.3026 52.2919 89.796C54.1039 88.88 55.9279 87.996 57.7279 87.056C61.3279 85.22 64.9279 83.304 68.4839 81.36C72.0399 79.416 75.5999 77.38 79.0719 75.292C81.4719 73.84 83.8959 72.356 86.2719 70.804C90.8344 78.0067 97.9931 83.1779 106.265 85.2463C114.536 87.3146 123.286 86.1214 130.702 81.914C138.117 77.7066 143.63 70.8075 146.098 62.6462C148.565 54.485 147.798 45.6872 143.956 38.076H143.948ZM125.764 76.288C121.115 78.5825 115.891 79.4471 110.751 78.7725C105.611 78.0979 100.787 75.9144 96.8877 72.498C92.9887 69.0816 90.1903 64.5858 88.8463 59.5791C87.5023 54.5723 87.6731 49.2795 89.3371 44.3698C91.001 39.4602 94.0835 35.1541 98.1946 31.9962C102.306 28.8383 107.261 26.9703 112.434 26.6285C117.606 26.2866 122.764 27.4863 127.255 30.0757C131.746 32.6651 135.368 36.528 137.664 41.176C139.188 44.2628 140.09 47.6197 140.317 51.0549C140.544 54.4901 140.092 57.9364 138.987 61.197C137.882 64.4576 136.145 67.4685 133.877 70.0578C131.608 72.6472 128.851 74.7642 125.764 76.288Z" fill="black"/>
<path d="M63.2 44.8C63.2 45.036 63.3239 45.228 63.4799 45.228C63.6359 45.228 63.7599 45.036 63.7599 44.8C63.7599 44.564 63.6359 44.372 63.4799 44.372C63.3239 44.372 63.2 44.58 63.2 44.8Z" fill="#263238"/>
<path d="M63.3119 45.228C63.595 45.9525 63.9759 46.6348 64.4439 47.256C64.2821 47.3718 64.0969 47.4507 63.9014 47.4874C63.7058 47.524 63.5046 47.5174 63.3119 47.468V45.228Z" fill="#DE5753"/>
<path d="M62.3719 43.484C62.3496 43.484 62.3276 43.479 62.3075 43.4693C62.2874 43.4596 62.2698 43.4455 62.2559 43.428C62.2351 43.3975 62.2268 43.3601 62.2327 43.3236C62.2387 43.2871 62.2584 43.2543 62.2879 43.232C62.4641 43.0984 62.6699 43.0094 62.8879 42.9724C63.1059 42.9355 63.3296 42.9518 63.5399 43.02C63.5588 43.0252 63.5764 43.0342 63.5916 43.0466C63.6067 43.0589 63.6192 43.0744 63.628 43.0918C63.6369 43.1093 63.6419 43.1284 63.6429 43.148C63.6439 43.1675 63.6408 43.1871 63.6338 43.2053C63.6268 43.2236 63.616 43.2402 63.6021 43.2541C63.5883 43.2679 63.5717 43.2787 63.5534 43.2857C63.5352 43.2928 63.5156 43.2959 63.4961 43.2949C63.4765 43.2939 63.4574 43.2888 63.4399 43.28C63.2728 43.2288 63.0959 43.2184 62.924 43.2497C62.7521 43.281 62.5902 43.3531 62.4519 43.46C62.4282 43.4757 62.4004 43.4841 62.3719 43.484Z" fill="#263238"/>
<path d="M55.1199 46.58C55.5199 48.728 55.9599 52.668 54.4559 54.104C54.4559 54.104 55.0439 56.284 59.0399 56.284C63.4399 56.284 61.1359 54.104 61.1359 54.104C58.7359 53.528 58.8039 51.752 59.2199 50.08L55.1199 46.58Z" fill="#E4897B"/>
<path d="M52.6599 55.236C53.1359 54.496 52.3359 52.7 52.3359 52.7C52.3359 52.7 59.4079 50.92 62.2999 53.652C62.8999 54.216 62.2359 55.048 62.2359 55.048L52.6599 55.236Z" fill="#111827"/>
<path opacity="0.1" d="M52.6599 55.236C53.1359 54.496 52.3359 52.7 52.3359 52.7C52.3359 52.7 59.4079 50.92 62.2999 53.652C62.8999 54.216 62.2359 55.048 62.2359 55.048L52.6599 55.236Z" fill="black"/>
<path d="M40.9599 136.848C40.5879 136.848 39.9919 136.228 39.8159 135.996C39.8084 135.985 39.8043 135.972 39.8043 135.958C39.8043 135.944 39.8084 135.931 39.8159 135.92C39.8224 135.909 39.8317 135.9 39.843 135.893C39.8543 135.887 39.867 135.884 39.8799 135.884C39.9239 135.884 40.9039 135.972 41.1719 136.32C41.2011 136.357 41.2219 136.399 41.2329 136.445C41.244 136.491 41.245 136.538 41.2359 136.584C41.2324 136.644 41.2106 136.701 41.1733 136.747C41.1361 136.794 41.0853 136.828 41.0279 136.844L40.9599 136.848ZM40.0319 136.048C40.3239 136.384 40.7919 136.764 40.9919 136.716C40.9919 136.716 41.0719 136.696 41.0959 136.568C41.1012 136.541 41.1003 136.514 41.0934 136.487C41.0865 136.461 41.0737 136.437 41.0559 136.416C40.7596 136.192 40.4031 136.061 40.0319 136.04V136.048Z" fill="#111827"/>
<path d="M40.076 136.04C40.0042 136.047 39.9318 136.047 39.86 136.04C39.8473 136.039 39.8353 136.034 39.8253 136.027C39.8153 136.019 39.8079 136.008 39.804 135.996C39.7983 135.985 39.7954 135.973 39.7954 135.96C39.7954 135.948 39.7983 135.935 39.804 135.924C39.832 135.9 40.42 135.288 40.864 135.288C40.9171 135.287 40.9699 135.297 41.0188 135.318C41.0678 135.338 41.1118 135.369 41.148 135.408C41.1878 135.441 41.215 135.487 41.2252 135.538C41.2354 135.589 41.2279 135.642 41.204 135.688C41.088 135.912 40.476 136.04 40.076 136.04ZM40.024 135.9C40.424 135.9 41.004 135.776 41.1 135.6C41.1 135.6 41.128 135.548 41.064 135.484C41.0407 135.459 41.0122 135.439 40.9804 135.426C40.9486 135.413 40.9143 135.407 40.88 135.408C40.5521 135.483 40.254 135.655 40.024 135.9Z" fill="#111827"/>
<path d="M67.356 145.928C67.0528 145.926 66.7504 145.898 66.452 145.844C66.4372 145.841 66.4238 145.833 66.4143 145.821C66.4048 145.81 66.3997 145.795 66.4 145.78C66.3977 145.766 66.3996 145.752 66.4053 145.739C66.4109 145.726 66.4202 145.716 66.432 145.708C66.476 145.684 67.5 145.096 67.992 145.232C68.0376 145.242 68.0806 145.262 68.1185 145.289C68.1563 145.317 68.1881 145.352 68.212 145.392C68.2433 145.436 68.2601 145.49 68.2601 145.544C68.2601 145.598 68.2433 145.652 68.212 145.696C68.096 145.876 67.732 145.928 67.356 145.928ZM66.68 145.74C67.224 145.82 67.968 145.816 68.104 145.624C68.124 145.6 68.14 145.556 68.104 145.472C68.0734 145.422 68.0246 145.386 67.968 145.372C67.656 145.292 67.036 145.556 66.68 145.74Z" fill="#111827"/>
<path d="M66.4679 145.848C66.4548 145.852 66.4409 145.852 66.4279 145.848C66.4168 145.841 66.4081 145.831 66.4031 145.818C66.3981 145.806 66.397 145.793 66.3999 145.78C66.427 145.364 66.5868 144.967 66.8559 144.648C66.9103 144.601 66.9742 144.566 67.0432 144.546C67.1123 144.526 67.1848 144.521 67.2559 144.532C67.4479 144.532 67.5039 144.648 67.5159 144.724C67.5679 145.056 66.8679 145.692 66.5119 145.852L66.4679 145.848ZM67.1839 144.648C67.0959 144.647 67.0106 144.679 66.9439 144.736C66.7177 144.989 66.5776 145.307 66.5439 145.644C66.9039 145.424 67.3839 144.928 67.3439 144.728C67.3439 144.728 67.3439 144.66 67.2079 144.648H67.1839Z" fill="#111827"/>
<path d="M63.236 145.776H66.176L66.468 138.972H63.528L63.236 145.776Z" fill="#E4897B"/>
<path d="M37.0559 134.096L39.5119 135.704L44.9359 131.124L42.4759 129.512L37.0559 134.096Z" fill="#E4897B"/>
<path d="M39.9159 135.552L37.3639 133.46C37.3189 133.423 37.2623 133.403 37.2039 133.403C37.1456 133.403 37.089 133.423 37.0439 133.46L34.9399 135.112C34.8891 135.152 34.8481 135.204 34.8198 135.262C34.7916 135.321 34.777 135.385 34.777 135.45C34.777 135.515 34.7916 135.579 34.8198 135.638C34.8481 135.696 34.8891 135.748 34.9399 135.788C35.8439 136.504 36.3199 136.808 37.4439 137.728C38.1359 138.292 39.8439 140.02 40.8079 140.8C41.7719 141.58 42.6559 140.74 42.3359 140.336C40.8999 138.516 40.3359 136.96 40.1719 135.996C40.1436 135.822 40.0526 135.664 39.9159 135.552Z" fill="#263238"/>
<path d="M66.156 145.436H62.956C62.8976 145.436 62.841 145.456 62.7953 145.492C62.7496 145.529 62.7174 145.579 62.704 145.636L62.124 148.248C62.1094 148.311 62.1094 148.377 62.124 148.44C62.1386 148.504 62.1675 148.563 62.2083 148.613C62.2492 148.664 62.301 148.704 62.3598 148.732C62.4187 148.759 62.483 148.773 62.548 148.772C63.704 148.752 65.376 148.684 66.832 148.684C68.532 148.684 70.004 148.776 71.996 148.776C73.196 148.776 73.54 147.556 73.032 147.448C70.736 146.944 68.856 146.892 66.872 145.664C66.6591 145.523 66.4112 145.444 66.156 145.436Z" fill="#263238"/>
<path d="M48.6639 54.98C46.1159 56.18 44.6639 64.22 44.6639 64.22L50.8919 66.704C51.8036 64.478 52.5405 62.1844 53.0959 59.844C53.9519 56.14 51.2719 53.74 48.6639 54.98Z" fill="#263238"/>
<path d="M51.9679 59.512C50.4279 61.072 49.7239 64.128 49.4159 66.116L50.9079 66.712C51.7936 64.5492 52.5156 62.3229 53.0679 60.052C52.9359 59.204 52.6079 58.864 51.9679 59.512Z" fill="#203048"/>
<path d="M65.6559 54.924C65.6559 54.924 68.7839 58.46 65.8319 80.324H50.1159C50.0079 77.924 51.5239 66.144 49.1959 54.776C50.9327 54.4392 52.6899 54.2174 54.4559 54.112C56.6806 53.9799 58.9112 53.9799 61.1359 54.112C62.6613 54.2655 64.1725 54.537 65.6559 54.924Z" fill="#263238"/>
<path d="M67.092 63.412L64.444 58.848C63.9328 60.9775 63.7241 63.1683 63.824 65.356C63.896 66.924 65.332 72.732 66.624 73.58C66.9668 70.2019 67.123 66.8074 67.092 63.412Z" fill="#203048"/>
<path d="M67.4599 58.048C67.8599 59.992 68.2599 61.984 68.6879 63.936C69.1159 65.888 69.5599 67.848 70.0759 69.74C70.2079 70.208 70.3319 70.688 70.4759 71.136L70.5839 71.48L70.6359 71.652V71.632C70.6079 71.596 70.5759 71.592 70.5999 71.632C70.7643 71.8116 70.9745 71.9429 71.2079 72.012C71.5861 72.1527 71.9755 72.2611 72.3719 72.336C74.2631 72.6358 76.1779 72.7603 78.0919 72.708L78.4719 74.884C77.9359 75.056 77.4359 75.18 76.9079 75.304C76.3799 75.428 75.8599 75.532 75.3279 75.612C74.2272 75.7953 73.1112 75.8703 71.9959 75.836C71.376 75.8193 70.7594 75.7389 70.1559 75.596C69.3886 75.4282 68.6675 75.0936 68.0439 74.616C67.6366 74.2872 67.3005 73.8789 67.0559 73.416C66.9919 73.296 66.9359 73.16 66.8839 73.044L66.8119 72.856L66.6639 72.456C66.4599 71.948 66.2919 71.448 66.1079 70.948C65.4319 68.948 64.8679 66.928 64.3719 64.912C63.8759 62.896 63.4479 60.884 63.0919 58.816L67.4599 58.048Z" fill="#E4897B"/>
<path d="M61.7319 57.068C60.9039 59.752 64.2599 67.756 64.2599 67.756L70.9439 66.076C70.9439 66.076 70.6879 61.916 69.1639 58.616C66.8679 53.64 62.7239 53.848 61.7319 57.068Z" fill="#263238"/>
<path d="M78.0359 72.708L81.3639 72.624L79.7639 76.088C79.7639 76.088 78.4079 76.268 77.2959 74.44L76.1239 73.04L77.4719 72.772C77.6575 72.733 77.8463 72.7115 78.0359 72.708Z" fill="#E4897B"/>
<path d="M83.4639 73.268L81.5599 76.14L79.7639 76.088L81.3639 72.624L83.4639 73.268Z" fill="#E4897B"/>
<path d="M66.468 138.972L66.316 142.48H63.376L63.528 138.972H66.468Z" fill="#CE6F64"/>
<path d="M42.4759 129.512L44.9359 131.124L42.1359 133.484L39.6799 131.876L42.4759 129.512Z" fill="#CE6F64"/>
<path d="M55.304 44.292C55.48 47.2 55.436 48.916 56.904 50.408C59.112 52.66 62.708 51.328 63.404 48.408C64.032 45.792 63.64 41.472 60.792 40.312C60.1636 40.0584 59.481 39.9685 58.8084 40.0509C58.1357 40.1333 57.4951 40.3853 56.9465 40.7831C56.3979 41.181 55.9594 41.7117 55.6721 42.3254C55.3848 42.9392 55.2581 43.6159 55.304 44.292Z" fill="#E4897B"/>
<path d="M51.8799 43.78C52.6039 46.432 54.3079 49.488 56.5119 49.684C59.2479 49.924 60.4839 47.096 60.8439 44.176C62.4839 43.052 61.6239 41.816 63.2679 41.66C65.3799 41.46 64.7039 37.596 61.9239 36.976C61.9239 36.976 62.8559 38.716 60.8999 37.836C59.0397 36.952 56.9731 36.5937 54.9239 36.8C54.9239 36.8 57.4199 38.048 54.9799 38.604C52.5399 39.16 51.8119 40.664 52.9359 41.572C52.9359 41.576 51.4039 42.036 51.8799 43.78Z" fill="#263238"/>
<path d="M59.1759 44.776C59.2296 45.4989 59.5207 46.1837 60.0039 46.724C60.6439 47.432 61.3119 46.992 61.4239 46.132C61.5279 45.36 61.3159 44.06 60.5319 43.668C59.7479 43.276 59.1239 43.904 59.1759 44.776Z" fill="#E4897B"/>
<path d="M60.256 80.324C60.256 80.324 63.12 101.064 60.864 109.376C57.288 122.536 43.616 133.644 43.616 133.644L38.98 130.604C38.98 130.604 50.624 121.224 52.048 110.204C53.328 100.312 50.116 88.348 50.116 80.32L60.256 80.324Z" fill="#111827"/>
<path opacity="0.1" d="M60.256 80.324C60.256 80.324 63.12 101.064 60.864 109.376C57.288 122.536 43.616 133.644 43.616 133.644L38.98 130.604C38.98 130.604 50.624 121.224 52.048 110.204C53.328 100.312 50.116 88.348 50.116 80.32L60.256 80.324Z" fill="black"/>
<path d="M61.4399 92.18C60.6774 91.3065 59.8381 90.5033 58.9319 89.78C59.4199 96.512 59.8199 106.484 59.3759 113.568C59.9729 112.21 60.4702 110.81 60.8639 109.38C61.9639 105.32 61.8479 98.308 61.4399 92.18Z" fill="#111827"/>
<path opacity="0.3" d="M61.4399 92.18C60.6774 91.3065 59.8381 90.5033 58.9319 89.78C59.4199 96.512 59.8199 106.484 59.3759 113.568C59.9729 112.21 60.4702 110.81 60.8639 109.38C61.9639 105.32 61.8479 98.308 61.4399 92.18Z" fill="black"/>
<path d="M45.4839 132.608C45.5039 132.608 43.6879 133.808 43.6879 133.808L38.6239 130.488L40.2239 129.164L45.4839 132.608Z" fill="#111827"/>
<path opacity="0.3" d="M45.4839 132.608C45.5039 132.608 43.6879 133.808 43.6879 133.808L38.6239 130.488L40.2239 129.164L45.4839 132.608Z" fill="black"/>
<path d="M65.8319 80.324C65.8319 80.324 70.2559 99.084 70.5679 108.048C70.9199 118.096 67.4119 141.8 67.4119 141.8H62.4319C62.4319 141.8 61.8199 117.912 61.5999 108.76C61.3559 98.78 55.4999 80.324 55.4999 80.324H65.8319Z" fill="#111827"/>
<path opacity="0.1" d="M65.8319 80.324C65.8319 80.324 70.2559 99.084 70.5679 108.048C70.9199 118.096 67.4119 141.8 67.4119 141.8H62.4319C62.4319 141.8 61.8199 117.912 61.5999 108.76C61.3559 98.78 55.4999 80.324 55.4999 80.324H65.8319Z" fill="black"/>
<path d="M68.3679 139.82C68.3919 139.82 68.0879 141.884 68.0879 141.884H62.0319L61.8679 140.04L68.3679 139.82Z" fill="#111827"/>
<path opacity="0.3" d="M68.3679 139.82C68.3919 139.82 68.0879 141.884 68.0879 141.884H62.0319L61.8679 140.04L68.3679 139.82Z" fill="black"/>
<path d="M142.4 62.296C142.74 62.616 143.008 62.888 143.288 63.192C143.568 63.496 143.832 63.792 144.088 64.1C144.608 64.712 145.096 65.356 145.568 66.004C146.511 67.3039 147.349 68.6762 148.076 70.108L148.224 70.4C148.296 70.5414 148.357 70.6885 148.404 70.84C148.501 71.1327 148.56 71.4365 148.58 71.744C148.606 72.2864 148.531 72.8288 148.36 73.344C148.068 74.1998 147.634 75.0003 147.076 75.712C146.071 77.0029 144.885 78.1425 143.556 79.096L142.56 77.952C143.028 77.404 143.516 76.816 143.952 76.228C144.396 75.6583 144.797 75.0567 145.152 74.428C145.484 73.8795 145.729 73.2832 145.88 72.66C145.932 72.4371 145.941 72.2065 145.908 71.98C145.894 71.9039 145.87 71.8299 145.836 71.76C145.821 71.7293 145.804 71.6999 145.784 71.672L145.656 71.456C144.885 70.1982 144.047 68.9818 143.148 67.812C142.704 67.224 142.228 66.66 141.748 66.104C141.512 65.824 141.268 65.552 141.024 65.28C140.78 65.008 140.516 64.736 140.304 64.524L142.4 62.296Z" fill="#E4897B"/>
<path d="M142.944 77.6161L139.956 77.1281L141.52 79.7441C141.52 79.7441 143.444 79.6761 143.992 78.5441L142.944 77.6161Z" fill="#E4897B"/>
<path d="M137.748 78.3361L139.172 80.4601L141.52 79.7441L139.956 77.1281L137.748 78.3361Z" fill="#E4897B"/>
<path d="M142.8 145.892C142.597 145.909 142.394 145.854 142.228 145.736C142.178 145.689 142.141 145.629 142.121 145.563C142.1 145.497 142.097 145.427 142.112 145.36C142.115 145.317 142.129 145.276 142.154 145.241C142.179 145.205 142.213 145.177 142.252 145.16C142.6 145.004 143.512 145.588 143.616 145.656C143.628 145.663 143.637 145.674 143.642 145.687C143.647 145.7 143.648 145.715 143.644 145.728C143.642 145.742 143.637 145.755 143.627 145.765C143.618 145.775 143.606 145.782 143.592 145.784C143.333 145.85 143.067 145.886 142.8 145.892ZM142.4 145.272C142.371 145.268 142.341 145.268 142.312 145.272C142.294 145.28 142.279 145.293 142.269 145.309C142.258 145.326 142.252 145.345 142.252 145.364C142.241 145.409 142.242 145.455 142.255 145.499C142.268 145.544 142.291 145.584 142.324 145.616C142.476 145.752 142.868 145.772 143.392 145.668C143.092 145.47 142.754 145.335 142.4 145.272Z" fill="#111827"/>
<path d="M143.6 145.78H143.564C143.28 145.616 142.732 144.98 142.8 144.632C142.813 144.577 142.843 144.528 142.887 144.492C142.93 144.456 142.984 144.435 143.04 144.432C143.094 144.424 143.149 144.429 143.201 144.445C143.253 144.462 143.301 144.49 143.34 144.528C143.668 144.816 143.672 145.68 143.672 145.728C143.671 145.74 143.668 145.752 143.661 145.762C143.655 145.773 143.646 145.782 143.636 145.788L143.6 145.78ZM143.088 144.58H143.056C142.968 144.58 142.948 144.628 142.94 144.664C142.9 144.868 143.24 145.356 143.524 145.584C143.531 145.248 143.435 144.919 143.248 144.64C143.224 144.618 143.196 144.601 143.165 144.59C143.134 144.58 143.101 144.577 143.068 144.58H143.088Z" fill="#111827"/>
<path d="M129.168 145.892C128.913 145.916 128.657 145.851 128.444 145.708C128.396 145.666 128.359 145.612 128.336 145.552C128.313 145.492 128.305 145.428 128.312 145.364C128.315 145.325 128.327 145.288 128.348 145.255C128.369 145.222 128.398 145.195 128.432 145.176C128.804 144.968 129.996 145.576 130.132 145.652C130.145 145.66 130.155 145.672 130.161 145.685C130.167 145.698 130.17 145.713 130.168 145.728C130.166 145.742 130.159 145.755 130.149 145.765C130.139 145.775 130.126 145.782 130.112 145.784C129.802 145.85 129.485 145.886 129.168 145.892ZM128.636 145.272C128.59 145.269 128.545 145.279 128.504 145.3C128.49 145.307 128.478 145.318 128.469 145.331C128.461 145.345 128.456 145.36 128.456 145.376C128.45 145.418 128.454 145.46 128.468 145.5C128.482 145.54 128.505 145.575 128.536 145.604C128.72 145.768 129.212 145.796 129.876 145.684C129.489 145.478 129.07 145.339 128.636 145.272Z" fill="#111827"/>
<path d="M130.1 145.78H130.068C129.712 145.62 129.004 144.98 129.06 144.632C129.06 144.552 129.132 144.452 129.328 144.432C129.4 144.424 129.472 144.431 129.541 144.453C129.61 144.474 129.673 144.509 129.728 144.556C130.104 144.868 130.176 145.676 130.176 145.712C130.178 145.724 130.176 145.737 130.171 145.748C130.166 145.759 130.158 145.769 130.148 145.776C130.133 145.783 130.116 145.784 130.1 145.78ZM129.384 144.58H129.34C129.212 144.58 129.204 144.644 129.2 144.66C129.168 144.864 129.648 145.372 130 145.592C129.965 145.25 129.826 144.927 129.6 144.668C129.539 144.616 129.464 144.585 129.384 144.58Z" fill="#111827"/>
<path d="M134.828 53.1C134.712 54.908 134.4 58.58 135.788 59.596C135.788 59.596 135.536 61.448 132.26 61.88C128.66 62.348 130.304 60.316 130.304 60.316C132.212 59.588 131.968 58.136 131.448 56.808L134.828 53.1Z" fill="#E4897B"/>
<path d="M127.376 49.904C127.356 49.9041 127.337 49.8998 127.319 49.8915C127.301 49.8832 127.285 49.8711 127.272 49.856C127.158 49.7203 127.013 49.6134 126.85 49.5439C126.686 49.4745 126.509 49.4443 126.332 49.456C126.313 49.4594 126.294 49.459 126.276 49.4547C126.257 49.4505 126.24 49.4425 126.224 49.4313C126.209 49.42 126.196 49.4058 126.186 49.3894C126.177 49.373 126.17 49.3549 126.168 49.336C126.163 49.2984 126.174 49.2605 126.197 49.2305C126.22 49.2006 126.254 49.181 126.292 49.176C126.518 49.1569 126.745 49.1928 126.954 49.2806C127.163 49.3683 127.348 49.5054 127.492 49.68C127.509 49.7009 127.52 49.7262 127.524 49.7531C127.528 49.78 127.523 49.8073 127.512 49.832C127.501 49.8566 127.483 49.8776 127.46 49.8925C127.438 49.9073 127.411 49.9155 127.384 49.916L127.376 49.904Z" fill="#263238"/>
<path d="M126.752 51.676C126.61 52.2497 126.391 52.8015 126.1 53.316C126.234 53.3879 126.381 53.4294 126.533 53.4377C126.684 53.446 126.836 53.4209 126.976 53.364L126.752 51.676Z" fill="#DE5753"/>
<path d="M126.912 51.236C126.944 51.476 126.844 51.684 126.688 51.708C126.532 51.732 126.376 51.548 126.348 51.308C126.32 51.068 126.416 50.86 126.572 50.84C126.728 50.82 126.884 50.98 126.912 51.236Z" fill="#263238"/>
<path d="M126.644 50.844L126.048 50.752C126.048 50.752 126.4 51.164 126.644 50.844Z" fill="#263238"/>
<path d="M133.396 145.716H130.396L130.196 138.776H133.196L133.396 145.716Z" fill="#E4897B"/>
<path d="M147.016 145.716H144.016L143.052 138.776H146.052L147.016 145.716Z" fill="#E4897B"/>
<path d="M143.832 145.38H147.2C147.257 145.379 147.313 145.4 147.357 145.437C147.4 145.475 147.428 145.527 147.436 145.584L147.836 148.252C147.843 148.319 147.836 148.387 147.816 148.452C147.795 148.516 147.761 148.575 147.715 148.626C147.67 148.676 147.614 148.716 147.553 148.743C147.491 148.771 147.424 148.784 147.356 148.784C146.184 148.764 145.616 148.696 144.136 148.696C143.224 148.696 141.892 148.788 140.636 148.788C139.38 148.788 139.312 147.544 139.836 147.432C142.184 146.928 142.556 146.232 143.344 145.564C143.482 145.45 143.653 145.385 143.832 145.38Z" fill="#263238"/>
<path d="M130.296 145.38H133.66C133.718 145.379 133.774 145.4 133.818 145.437C133.862 145.475 133.891 145.527 133.9 145.584L134.3 148.252C134.307 148.319 134.3 148.387 134.28 148.452C134.259 148.516 134.225 148.575 134.179 148.626C134.134 148.676 134.078 148.716 134.017 148.743C133.955 148.771 133.888 148.784 133.82 148.784C132.648 148.764 132.08 148.696 130.6 148.696C129.688 148.696 127.8 148.788 126.544 148.788C125.288 148.788 125.22 147.544 125.744 147.432C128.092 146.928 129.016 146.232 129.808 145.564C129.946 145.45 130.117 145.385 130.296 145.38Z" fill="#263238"/>
<path d="M130.196 138.776L130.3 142.356H133.3L133.196 138.776H130.196Z" fill="#CE6F64"/>
<path d="M146.052 138.776H143.052L143.552 142.356H146.548L146.052 138.776Z" fill="#CE6F64"/>
<path d="M134.868 49.356C135.072 52.324 135.22 53.576 133.932 55.284C131.992 57.848 128.304 57.452 127.216 54.604C126.236 52.04 126.068 47.62 128.796 46.068C129.396 45.7241 130.074 45.5392 130.766 45.5308C131.457 45.5225 132.14 45.691 132.748 46.0203C133.356 46.3497 133.87 46.829 134.241 47.4128C134.612 47.9966 134.828 48.6655 134.868 49.356Z" fill="#E4897B"/>
<path d="M136.596 52.112C138.26 53.04 139.496 50.752 139.496 50.752C139.496 50.752 136.512 51.076 136.78 49.3C137.132 46.944 135.444 44.08 131.212 44.448C130.976 44.468 130.752 44.496 130.532 44.532C130.089 44.322 129.588 44.2678 129.11 44.3782C128.633 44.4885 128.206 44.757 127.9 45.14C126.7 45.24 125.08 46.672 126.18 48.564C126.257 48.3466 126.377 48.1468 126.532 47.976C126.624 49.084 127.592 50.844 128.8 50.96C129.06 52.476 128.052 54.232 128.4 55.816C128.916 58.1 132.768 58.616 132.768 58.616C132.635 58.3308 132.586 58.0138 132.625 57.7017C132.665 57.3896 132.792 57.095 132.992 56.852C135.608 58.052 137.332 56.88 137.332 56.88C135.548 56.216 136.088 55.032 136.088 55.032C136.704 55.3055 137.402 55.3296 138.035 55.099C138.669 54.8685 139.188 54.4015 139.484 53.796C138.891 53.8242 138.303 53.6801 137.791 53.3813C137.278 53.0824 136.863 52.6416 136.596 52.112Z" fill="#263238"/>
<path d="M129.844 51.416C129.851 51.7009 129.802 51.9843 129.699 52.25C129.596 52.5157 129.441 52.7584 129.244 52.9641C128.716 53.5121 128.068 53.128 127.892 52.428C127.736 51.796 127.824 50.7521 128.512 50.4641C128.663 50.4045 128.827 50.3838 128.989 50.4038C129.15 50.4238 129.304 50.4838 129.437 50.5784C129.569 50.673 129.676 50.7992 129.747 50.9455C129.818 51.0918 129.851 51.2535 129.844 51.416Z" fill="#E4897B"/>
<path d="M132.336 79.068C132.336 79.068 133.096 98.812 134.904 110.404C136.36 119.772 142.828 141.66 142.828 141.66H146.916C146.916 141.66 143.544 120.52 142.804 111.26C140.932 87.8241 145.792 82.792 141.204 77.912L132.336 79.068Z" fill="#263238"/>
<path d="M135.752 85.312C135.752 85.312 133.904 84.992 132.824 88.512C133.224 95.18 133.908 104.028 134.904 110.404C135.124 111.824 135.46 113.536 135.872 115.412C135.092 104.148 135.752 85.312 135.752 85.312Z" fill="#161F33"/>
<path d="M129.148 79.484C129.148 79.484 125.78 101.328 125.976 110.468C126.18 119.976 129.664 141.668 129.664 141.668H133.716C133.716 141.668 133.076 120.54 133.432 111.204C133.832 101.024 137.988 78.336 137.988 78.336L129.148 79.484Z" fill="#263238"/>
<path d="M147.508 141.852H142.072L141.648 140.028L147.468 140.068L147.508 141.852Z" fill="#111827"/>
<path opacity="0.2" d="M147.508 141.852H142.072L141.648 140.028L147.468 140.068L147.508 141.852Z" fill="black"/>
<path d="M141 59.6C142.564 59.752 144.94 64.196 144.94 64.196L140.992 67.224C140.992 67.224 137.724 64.356 138.112 62.744C138.516 61.068 139.5 59.46 141 59.6Z" fill="#111827"/>
<path opacity="0.1" d="M141 59.6C142.564 59.752 144.94 64.196 144.94 64.196L140.992 67.224C140.992 67.224 137.724 64.356 138.112 62.744C138.516 61.068 139.5 59.46 141 59.6Z" fill="black"/>
<path d="M139.82 61.512C139.421 61.4046 139.009 61.3587 138.596 61.376C138.386 61.8133 138.224 62.272 138.112 62.744C137.712 64.344 140.992 67.224 140.992 67.224L141.284 67L139.82 61.512Z" fill="#111827"/>
<path opacity="0.3" d="M139.82 61.512C139.421 61.4046 139.009 61.3587 138.596 61.376C138.386 61.8133 138.224 62.272 138.112 62.744C137.712 64.344 140.992 67.224 140.992 67.224L141.284 67L139.82 61.512Z" fill="black"/>
<path d="M127.808 65.78C126.668 68.664 125.468 71.596 124.512 74.488C124.448 74.672 124.396 74.848 124.34 75.028L124.204 75.472C124.167 75.6028 124.167 75.7413 124.204 75.872C124.43 76.3721 124.788 76.8009 125.24 77.112C126.436 77.9701 127.739 78.668 129.116 79.188L128.756 80.66C127.062 80.4367 125.424 79.9024 123.924 79.084C123.001 78.5909 122.249 77.8294 121.768 76.9C121.492 76.306 121.396 75.644 121.492 74.996C121.501 74.9167 121.514 74.8379 121.532 74.76L121.572 74.592L121.64 74.288C121.688 74.084 121.736 73.888 121.788 73.688C122.188 72.088 122.7 70.568 123.24 69.06C123.78 67.552 124.344 66.064 124.98 64.58L127.808 65.78Z" fill="#E4897B"/>
<path d="M125.38 61.7321C125.38 61.7321 124.028 62.4161 129.148 79.4841L141.22 77.9081C140.372 73.0201 139.972 69.9921 141 59.6001C139.269 59.4761 137.531 59.4761 135.8 59.6001C133.957 59.7072 132.124 59.9479 130.316 60.3201C128 60.8361 125.38 61.7321 125.38 61.7321Z" fill="#111827"/>
<path opacity="0.1" d="M125.38 61.7321C125.38 61.7321 124.028 62.4161 129.148 79.4841L141.22 77.9081C140.372 73.0201 139.972 69.9921 141 59.6001C139.269 59.4761 137.531 59.4761 135.8 59.6001C133.957 59.7072 132.124 59.9479 130.316 60.3201C128 60.8361 125.38 61.7321 125.38 61.7321Z" fill="black"/>
<path d="M141.308 77.176L142 78.18C142.052 78.26 141.964 78.356 141.828 78.376L129.168 80.032C129.06 80.032 128.96 80.004 128.944 79.936L128.696 78.868C128.676 78.796 128.764 78.72 128.884 78.704L141.108 77.104C141.145 77.0981 141.182 77.1017 141.217 77.1143C141.252 77.1269 141.284 77.1481 141.308 77.176Z" fill="#111827"/>
<path opacity="0.2" d="M141.308 77.176L142 78.18C142.052 78.26 141.964 78.356 141.828 78.376L129.168 80.032C129.06 80.032 128.96 80.004 128.944 79.936L128.696 78.868C128.676 78.796 128.764 78.72 128.884 78.704L141.108 77.104C141.145 77.0981 141.182 77.1017 141.217 77.1143C141.252 77.1269 141.284 77.1481 141.308 77.176Z" fill="black"/>
<path d="M139.844 78.756L140.172 78.712C140.236 78.712 140.28 78.664 140.272 78.624L139.936 77.24C139.923 77.2164 139.903 77.1979 139.878 77.1877C139.853 77.1775 139.826 77.1762 139.8 77.184L139.472 77.224C139.404 77.224 139.36 77.272 139.372 77.316L139.708 78.696C139.716 78.74 139.78 78.764 139.844 78.756Z" fill="#263238"/>
<path d="M131.908 79.7801L132.236 79.7361C132.3 79.7361 132.348 79.6881 132.336 79.6481L132 78.2641C131.987 78.2407 131.967 78.2222 131.942 78.2114C131.918 78.2006 131.89 78.198 131.864 78.2041L131.536 78.2481C131.472 78.2481 131.424 78.2961 131.436 78.3361L131.772 79.7201C131.78 79.7801 131.844 79.8041 131.908 79.7801Z" fill="#263238"/>
<path d="M125.944 67.524C126.276 69.068 126.744 71.024 127.428 73.5L127.576 67.224L125.944 67.524Z" fill="#111827"/>
<path opacity="0.3" d="M125.944 67.524C126.276 69.068 126.744 71.024 127.428 73.5L127.576 67.224L125.944 67.524Z" fill="black"/>
<path d="M125.38 61.732C123.88 62.336 122.58 67.468 122.58 67.468L127.74 69.98C127.74 69.98 130.232 63.704 129.116 62.48C128 61.256 127.108 61.04 125.38 61.732Z" fill="#111827"/>
<path opacity="0.1" d="M125.38 61.732C123.88 62.336 122.58 67.468 122.58 67.468L127.74 69.98C127.74 69.98 130.232 63.704 129.116 62.48C128 61.256 127.108 61.04 125.38 61.732Z" fill="black"/>
<path d="M134.408 141.852H128.972L128.548 140.028L134.6 140.068L134.408 141.852Z" fill="#111827"/>
<path opacity="0.2" d="M134.408 141.852H128.972L128.548 140.028L134.6 140.068L134.408 141.852Z" fill="black"/>
<path d="M129.2 78.692L128.764 78.512C128.657 78.4684 128.54 78.454 128.425 78.4701C128.311 78.4862 128.203 78.5324 128.112 78.6039C128.021 78.6753 127.95 78.7696 127.907 78.8771C127.865 78.9846 127.851 79.1016 127.868 79.216L128.184 81.3C128.199 81.4043 128.237 81.504 128.296 81.5917C128.354 81.6795 128.431 81.7532 128.522 81.8075C128.612 81.8619 128.713 81.8955 128.818 81.906C128.923 81.9164 129.029 81.9035 129.128 81.868C129.287 81.8104 129.435 81.728 129.568 81.624C129.713 81.504 129.827 81.3518 129.902 81.1795C129.977 81.0072 130.011 80.8196 130 80.632L129.956 79.768C129.948 79.5345 129.873 79.3084 129.739 79.1172C129.604 78.9261 129.417 78.7783 129.2 78.692Z" fill="#E4897B"/>
</svg>
