<svg width="320" height="239" viewBox="0 0 320 239" fill="none" xmlns="http://www.w3.org/2000/svg">
<path d="M320 209.536H0V209.696H320V209.536Z" fill="#EBEBEB"/>
<path d="M287.936 219.834H266.739V219.994H287.936V219.834Z" fill="#EBEBEB"/>
<path d="M258.681 219.834H213.363V219.994H258.681V219.834Z" fill="#EBEBEB"/>
<path d="M188.371 213.894H176.09V214.054H188.371V213.894Z" fill="#EBEBEB"/>
<path d="M55.5201 214.97H33.5745V215.13H55.5201V214.97Z" fill="#EBEBEB"/>
<path d="M101.12 214.97H61.2156V215.13H101.12V214.97Z" fill="#EBEBEB"/>
<path d="M144.09 217.67H120.531V217.83H144.09V217.67Z" fill="#EBEBEB"/>
<path d="M151.68 180.992H28.1028C27.1347 180.99 26.2069 180.605 25.5229 179.919C24.839 179.234 24.4548 178.306 24.4548 177.338V3.6224C24.4633 2.65986 24.8511 1.73951 25.5342 1.06126C26.2172 0.383013 27.1403 0.00164889 28.1028 0H151.68C152.65 0 153.579 0.385016 154.264 1.07035C154.95 1.75568 155.335 2.68519 155.335 3.6544V177.338C155.335 178.307 154.95 179.236 154.264 179.922C153.579 180.607 152.65 180.992 151.68 180.992ZM28.1028 0.128C27.1772 0.129696 26.29 0.498602 25.6361 1.15374C24.9821 1.80889 24.6148 2.69673 24.6148 3.6224V177.338C24.6148 178.263 24.9821 179.151 25.6361 179.806C26.29 180.461 27.1772 180.83 28.1028 180.832H151.68C152.607 180.83 153.495 180.462 154.149 179.807C154.804 179.152 155.173 178.264 155.175 177.338V3.6224C155.173 2.69615 154.804 1.80831 154.149 1.15335C153.495 0.498394 152.607 0.129692 151.68 0.128H28.1028Z" fill="#EBEBEB"/>
<path d="M290.118 180.992H166.534C165.566 180.99 164.637 180.605 163.952 179.92C163.267 179.235 162.882 178.306 162.88 177.338V3.6224C162.89 2.65927 163.279 1.73893 163.963 1.06086C164.647 0.382789 165.571 0.00163091 166.534 0H290.118C291.08 0.00333088 292.001 0.385439 292.683 1.06351C293.365 1.74157 293.751 2.66096 293.76 3.6224V177.338C293.76 178.305 293.377 179.232 292.694 179.917C292.012 180.602 291.085 180.989 290.118 180.992ZM166.534 0.128C165.608 0.129692 164.72 0.498394 164.065 1.15335C163.41 1.80831 163.042 2.69615 163.04 3.6224V177.338C163.042 178.264 163.41 179.152 164.065 179.807C164.72 180.462 165.608 180.83 166.534 180.832H290.118C291.045 180.83 291.932 180.462 292.587 179.807C293.242 179.152 293.611 178.264 293.613 177.338V3.6224C293.611 2.69615 293.242 1.80831 292.587 1.15335C291.932 0.498394 291.045 0.129692 290.118 0.128H166.534Z" fill="#EBEBEB"/>
<path d="M48.5377 88.4608L135.386 88.4608V13.216L48.5377 13.216L48.5377 88.4608Z" fill="#E6E6E6"/>
<path d="M46.598 88.4608L133.446 88.4608V13.216L46.598 13.216L46.598 88.4608Z" fill="#F5F5F5"/>
<path d="M129.984 85.7728V15.904L50.0673 15.904V85.7728H129.984Z" fill="#FAFAFA"/>
<path d="M97.9328 85.7728L112.416 15.904H82.1184L67.6416 85.7728H97.9328Z" fill="white"/>
<path d="M51.5266 85.7792L51.5266 15.9104H50.0674L50.0674 85.7792H51.5266Z" fill="#E6E6E6"/>
<path d="M48.0321 73.248L132.013 73.248V69.6384L48.0321 69.6384V73.248Z" fill="#F5F5F5"/>
<path d="M131.354 205.728H145.222V145.587H131.354V205.728Z" fill="#F0F0F0"/>
<path d="M40.7875 209.536H142.567V205.728H40.7875V209.536Z" fill="#F0F0F0"/>
<path d="M131.354 145.581H38.1184V205.722H131.354V145.581Z" fill="#F5F5F5"/>
<path d="M125.907 152.986H43.5713V172.71H125.907V152.986Z" fill="#F0F0F0"/>
<path d="M125.907 178.598H43.5713V198.323H125.907V178.598Z" fill="#F0F0F0"/>
<path d="M62.5472 164.198H106.931C107.289 164.197 107.631 164.054 107.884 163.801C108.137 163.548 108.28 163.206 108.282 162.848C108.28 162.49 108.137 162.147 107.885 161.893C107.632 161.639 107.289 161.495 106.931 161.491H62.5472C62.189 161.495 61.8465 161.639 61.5938 161.893C61.341 162.147 61.1984 162.49 61.1968 162.848C61.1985 163.206 61.3413 163.548 61.5942 163.801C61.847 164.054 62.1895 164.197 62.5472 164.198Z" fill="#F5F5F5"/>
<path d="M62.5472 189.811H106.931C107.289 189.809 107.631 189.667 107.884 189.414C108.137 189.161 108.28 188.818 108.282 188.461C108.282 188.102 108.14 187.758 107.886 187.504C107.633 187.249 107.29 187.106 106.931 187.104H62.5472C62.1884 187.106 61.845 187.249 61.5919 187.504C61.3388 187.758 61.1968 188.102 61.1968 188.461C61.1985 188.818 61.3413 189.161 61.5942 189.414C61.847 189.667 62.1895 189.809 62.5472 189.811Z" fill="#F5F5F5"/>
<path d="M276.237 52.544C284.134 50.368 286.835 36.0384 266.88 30.1888C271.283 44.6016 262.47 56.32 276.237 52.544Z" fill="#EBEBEB"/>
<path d="M277.984 58.7648C284.211 52.0384 278.323 36.8192 255.897 43.04C268.582 54.1376 267.136 70.496 277.984 58.7648Z" fill="#E0E0E0"/>
<path d="M271.84 60.4928C266.63 55.3344 274.093 37.3824 291.296 45.7024C281.549 55.04 280.96 69.4848 271.84 60.4928Z" fill="#FAFAFA"/>
<path d="M266.643 70.5408H281.805L282.95 60.2816H265.504L266.643 70.5408Z" fill="#E6E6E6"/>
<path d="M265.331 62.1184H283.123C283.423 62.1184 283.712 61.999 283.924 61.7866C284.137 61.5742 284.256 61.286 284.256 60.9856C284.256 60.6851 284.137 60.397 283.924 60.1846C283.712 59.9721 283.423 59.8528 283.123 59.8528H265.331C265.031 59.8528 264.742 59.9721 264.53 60.1846C264.318 60.397 264.198 60.6851 264.198 60.9856C264.198 61.286 264.318 61.5742 264.53 61.7866C264.742 61.999 265.031 62.1184 265.331 62.1184Z" fill="#E6E6E6"/>
<path d="M139.078 192.16V174.784H153.549V157.414H168.026V140.038H182.496V122.662H196.973V105.293H211.443V87.9168H225.92V70.5408H240.397H320V209.536H139.078H124.602V192.16H139.078Z" fill="#FAFAFA"/>
<path d="M218.681 192.16V174.784H233.158V157.414H247.629V140.038H262.105V122.662H276.576V105.293H291.053V87.9168H305.523V70.5408H320V87.9168V209.536H218.681H204.211V192.16H218.681Z" fill="#E0E0E0"/>
<path d="M204.211 192.16H123.75V197.37H204.211V192.16Z" fill="#EBEBEB"/>
<path d="M218.688 174.784H138.227V179.994H218.688V174.784Z" fill="#EBEBEB"/>
<path d="M233.158 157.414H152.698V162.624H233.158V157.414Z" fill="#EBEBEB"/>
<path d="M247.635 140.038H167.174V145.248H247.635V140.038Z" fill="#EBEBEB"/>
<path d="M262.106 122.662H181.645V127.872H262.106V122.662Z" fill="#EBEBEB"/>
<path d="M276.582 105.293H196.122V110.502H276.582V105.293Z" fill="#EBEBEB"/>
<path d="M291.053 87.9168H210.592V93.1264H291.053V87.9168Z" fill="#EBEBEB"/>
<path d="M305.53 70.5408H225.069V75.7504H305.53V70.5408Z" fill="#EBEBEB"/>
<path d="M160 238.438C228.533 238.438 284.089 235.195 284.089 231.194C284.089 227.192 228.533 223.949 160 223.949C91.467 223.949 35.9102 227.192 35.9102 231.194C35.9102 235.195 91.467 238.438 160 238.438Z" fill="#F5F5F5"/>
<path d="M214.208 66.3232C214.093 68.2432 213.869 70.0032 213.619 71.8272C213.37 73.6512 213.031 75.4368 212.647 77.2288C211.898 80.8557 210.816 84.4057 209.414 87.8336L208.832 89.1136L208.691 89.4336L208.64 89.6L208.538 89.8048C208.342 90.2066 208.095 90.5809 207.802 90.9184C207.453 91.311 207.037 91.6382 206.573 91.8848C206.118 92.1237 205.624 92.2797 205.114 92.3456C204.331 92.4293 203.539 92.3465 202.79 92.1024C201.73 91.7404 200.729 91.2227 199.821 90.5664C199.026 90.0062 198.268 89.397 197.549 88.7424C194.855 86.2447 192.431 83.4711 190.317 80.4672L192.435 78.6688C193.715 79.8528 194.995 81.0496 196.275 82.1824C197.548 83.315 198.876 84.383 200.256 85.3824C200.905 85.847 201.581 86.2743 202.278 86.6624C202.841 87.0036 203.448 87.2643 204.083 87.4368C204.301 87.4816 204.455 87.4368 204.384 87.4368C204.233 87.4536 204.092 87.5187 203.981 87.6224C203.942 87.6224 203.942 87.6224 203.981 87.6224L204.186 87.0912L204.634 85.9264C205.744 82.7195 206.61 79.4334 207.226 76.096C207.565 74.4192 207.802 72.7104 208.058 71.0144C208.314 69.3184 208.493 67.5712 208.64 65.952L214.208 66.3232Z" fill="#FFC3BD"/>
<path d="M210.33 59.2768C207.942 59.8848 206.272 69.7024 206.272 69.7024L212.845 74.1824C212.845 74.1824 219.149 64.2816 217.325 61.6576C215.405 58.912 213.811 58.3936 210.33 59.2768Z" fill="#2563EB"/>
<path d="M210.33 59.2768C207.942 59.8848 206.272 69.7024 206.272 69.7024L212.845 74.1824C212.845 74.1824 219.149 64.2816 217.325 61.6576C215.405 58.912 213.811 58.3936 210.33 59.2768Z" fill="#2563EB"/>
<path opacity="0.4" d="M210.33 59.2768C207.942 59.8848 206.272 69.7024 206.272 69.7024L212.845 74.1824C212.845 74.1824 219.149 64.2816 217.325 61.6576C215.405 58.912 213.811 58.3936 210.33 59.2768Z" fill="black"/>
<path opacity="0.3" d="M210.541 61.472L208.71 71.36L212.403 73.8688L210.541 61.472Z" fill="black"/>
<path d="M192.544 78.2656L189.44 73.3248L187.667 78.9376C187.667 78.9376 190.227 81.6256 192.55 80.9856L192.544 78.2656Z" fill="#FFC3BD"/>
<path d="M184.832 71.6928L183.603 76.4672L187.642 78.9376L189.414 73.3248L184.832 71.6928Z" fill="#FFC3BD"/>
<path d="M223.232 224.48H217.446L217.056 211.078H222.848L223.232 224.48Z" fill="#FFC3BD"/>
<path d="M274.297 197.6L269.888 201.35L259.795 192.339L264.205 188.595L274.297 197.6Z" fill="#FFC3BD"/>
<path d="M268.678 200.902L272.96 196C273.033 195.916 273.134 195.861 273.245 195.845C273.356 195.83 273.468 195.855 273.561 195.917L277.92 198.739C278.027 198.814 278.118 198.91 278.185 199.023C278.253 199.135 278.296 199.26 278.312 199.39C278.327 199.52 278.315 199.652 278.277 199.777C278.238 199.902 278.173 200.017 278.086 200.115C276.563 201.798 275.744 202.534 273.862 204.685C272.71 206.01 271.155 208.07 269.555 209.894C267.955 211.718 266.061 210.246 266.566 209.338C268.813 205.28 268.275 203.859 268.313 201.862C268.319 201.51 268.448 201.17 268.678 200.902Z" fill="#263238"/>
<path d="M217.248 223.814H223.751C223.862 223.813 223.971 223.853 224.056 223.926C224.14 223.999 224.196 224.1 224.211 224.211L224.954 229.331C224.975 229.467 224.965 229.605 224.926 229.736C224.888 229.867 224.82 229.988 224.729 230.091C224.638 230.193 224.525 230.273 224.399 230.327C224.273 230.38 224.137 230.405 224 230.4C221.735 230.362 220.64 230.227 217.779 230.227C216.019 230.227 212.384 230.413 209.952 230.413C207.52 230.413 207.392 228.006 208.41 227.795C212.941 226.816 214.727 225.472 216.256 224.186C216.531 223.946 216.884 223.814 217.248 223.814Z" fill="#263238"/>
<path opacity="0.2" d="M217.062 211.085L217.261 217.99H223.046L222.848 211.085H217.062Z" fill="black"/>
<path opacity="0.2" d="M264.211 188.595L259.795 192.339L265.005 196.986L269.414 193.235L264.211 188.595Z" fill="black"/>
<path d="M210.33 59.2768C210.33 59.2768 207.571 60.2496 213.094 94.208H236.595C236.205 84.64 236.192 78.7392 240.762 59.1104C237.472 58.4321 234.137 57.9915 230.784 57.792C227.23 57.5388 223.663 57.5388 220.109 57.792C215.526 58.24 210.33 59.2768 210.33 59.2768Z" fill="#2563EB"/>
<path opacity="0.4" d="M210.33 59.2768C210.33 59.2768 207.571 60.2496 213.094 94.208H236.595C236.205 84.64 236.192 78.7392 240.762 59.1104C237.472 58.4321 234.137 57.9915 230.784 57.792C227.23 57.5388 223.663 57.5388 220.109 57.792C215.526 58.24 210.33 59.2768 210.33 59.2768Z" fill="black"/>
<path d="M230.784 57.792C227.23 57.5388 223.663 57.5388 220.109 57.792C219.533 57.8432 218.944 57.9072 218.362 57.9776C218.121 58.3414 217.967 58.7556 217.911 59.1884C217.856 59.6211 217.901 60.0609 218.042 60.4736C218.791 62.336 221.492 62.5536 223.463 62.5536C230.74 62.5536 231.968 58.304 232.02 58.1248L232.09 57.8688C231.68 57.8432 231.22 57.8112 230.784 57.792Z" fill="white"/>
<path d="M229.76 45.7792C229.082 49.2096 228.416 55.5008 230.816 57.792C230.816 57.792 229.875 61.28 223.495 61.28C216.455 61.28 220.141 57.7984 220.141 57.7984C223.981 56.8832 223.872 54.0416 223.207 51.3984L229.76 45.7792Z" fill="#FFC3BD"/>
<path opacity="0.2" d="M227.053 48.0576L223.174 51.3664C223.341 51.9954 223.453 52.6379 223.507 53.2864C224.966 53.0752 226.976 51.4688 227.136 49.9392C227.226 49.3123 227.197 48.6741 227.053 48.0576Z" fill="black"/>
<path d="M225.734 27.104C225.139 25.088 224.64 21.9136 228.224 20.48C226.822 18.7648 226.483 15.5392 228.224 13.6256C229.964 11.712 232.576 12.416 232.576 12.416C232.576 12.416 233.344 7.73759 239.033 8.57599C244.723 9.41439 242.188 13.1584 242.188 13.1584C242.188 13.1584 249.952 11.6224 250.47 18.9184C250.988 26.2144 246.534 25.3184 246.534 25.3184C246.534 25.3184 249.996 28.224 248.076 31.4176C246.156 34.6112 241.721 33.5104 241.721 33.5104C241.721 33.5104 239.635 39.1552 234.72 35.9424C229.804 32.7296 225.734 27.104 225.734 27.104Z" fill="#263238"/>
<path d="M214.208 31.36C212.288 33.8432 213.133 36.6528 214.848 37.76C218.976 40.3968 224.947 29.3376 223.392 28.0128C221.837 26.688 216.128 28.8704 214.208 31.36Z" fill="#263238"/>
<path d="M231.545 25.4464C228.832 24.352 226.08 25.4976 225.222 27.1488C223.129 31.1744 232.633 38.4256 235.385 33.3952C237.017 30.4064 234.342 26.5728 231.545 25.4464Z" fill="#2563EB"/>
<path d="M230.4 37.76C230.599 43.52 230.803 45.9264 228.199 49.1328C224.288 53.952 217.191 52.9408 215.283 47.3728C213.568 42.3616 213.536 33.8176 218.906 31.0144C220.086 30.39 221.407 30.0778 222.742 30.1072C224.077 30.1367 225.382 30.5069 226.534 31.1828C227.685 31.8587 228.645 32.8177 229.322 33.9689C229.998 35.12 230.37 36.425 230.4 37.76Z" fill="#FFC3BD"/>
<path d="M229.536 40.7744C226.976 39.8208 226.336 36.832 226.746 35.6544C225.466 35.6032 222.669 35.1424 221.626 33.5552C219.629 34.8352 215.411 36.1152 214.957 33.984C214.502 31.8528 220.864 26.3744 225.677 25.952C231.398 25.4528 237.043 31.072 235.59 36.4544C234.138 41.8368 229.536 40.7744 229.536 40.7744Z" fill="#263238"/>
<path d="M213.12 94.208C213.12 94.208 208.557 138.784 208.935 156.435C209.331 174.79 216.058 216.653 216.058 216.653H223.879C223.879 216.653 222.643 175.859 223.335 157.837C224.09 138.182 230.33 94.208 230.33 94.208H213.12Z" fill="#263238"/>
<path d="M224.531 216.934H215.354L214.675 214.01L224.96 213.651L224.531 216.934Z" fill="#2563EB"/>
<path opacity="0.2" d="M223.232 105.299C217.472 116.909 222.074 138.093 224.116 145.978C225.159 134.138 226.925 119.667 228.301 109.043C227.431 103.04 225.92 99.9424 223.232 105.299Z" fill="black"/>
<path d="M219.302 94.208C219.302 94.208 224.627 140.55 228.646 155.43C233.421 173.094 263.072 196.87 263.072 196.87L269.088 191.75C269.088 191.75 247.597 165.92 243.942 156.614C236.153 136.774 242.822 107.155 236.595 94.1952L219.302 94.208Z" fill="#263238"/>
<path d="M270.048 191.488L262.585 197.824L259.795 196.154L268.237 188.301L270.048 191.488Z" fill="#2563EB"/>
<path d="M221.882 40.1664C221.926 40.6336 221.715 41.0304 221.414 41.0624C221.114 41.0944 220.826 40.736 220.774 40.2752C220.723 39.8144 220.941 39.4048 221.248 39.3792C221.555 39.3536 221.837 39.68 221.882 40.1664Z" fill="#263238"/>
<path d="M216.634 40.672C216.678 41.1328 216.467 41.536 216.16 41.568C215.853 41.6 215.578 41.2416 215.52 40.7744C215.462 40.3072 215.686 39.9104 215.987 39.8848C216.288 39.8592 216.589 40.2048 216.634 40.672Z" fill="#263238"/>
<path d="M216.135 39.8976L214.989 39.68C214.989 39.68 215.68 40.4992 216.135 39.8976Z" fill="#263238"/>
<path d="M218.093 41.3376C217.782 42.4364 217.321 43.4873 216.724 44.4608C216.977 44.6069 217.26 44.6962 217.552 44.7227C217.843 44.7492 218.137 44.7123 218.413 44.6144L218.093 41.3376Z" fill="#ED847E"/>
<path d="M220.992 46.144C220.739 46.2134 220.479 46.2605 220.218 46.2848C220.2 46.2866 220.182 46.2848 220.165 46.2796C220.148 46.2745 220.132 46.266 220.119 46.2547C220.105 46.2434 220.094 46.2295 220.086 46.2138C220.077 46.1981 220.072 46.1809 220.071 46.1632C220.067 46.1268 220.078 46.0905 220.1 46.0618C220.123 46.0331 220.156 46.0144 220.192 46.0096C220.771 45.967 221.333 45.789 221.831 45.49C222.329 45.191 222.749 44.7793 223.059 44.288C223.067 44.2711 223.078 44.2559 223.091 44.2436C223.105 44.2312 223.121 44.222 223.139 44.2165C223.157 44.2111 223.175 44.2095 223.193 44.2119C223.212 44.2143 223.229 44.2206 223.245 44.2304C223.277 44.248 223.3 44.2771 223.311 44.3117C223.322 44.3462 223.319 44.3836 223.303 44.416C222.786 45.2704 221.958 45.8902 220.992 46.144Z" fill="#263238"/>
<path d="M231.744 41.7344C231.604 42.8358 231.033 43.8368 230.157 44.5184C228.986 45.4144 227.859 44.5184 227.725 43.1168C227.61 41.8368 228.071 39.9168 229.466 39.5456C229.77 39.4836 230.085 39.4964 230.384 39.5829C230.682 39.6695 230.955 39.8271 231.179 40.0424C231.403 40.2576 231.572 40.5241 231.67 40.8188C231.768 41.1135 231.794 41.4277 231.744 41.7344Z" fill="#FFC3BD"/>
<path d="M222.445 36.8768C222.409 36.8858 222.372 36.8876 222.336 36.8821C222.3 36.8766 222.265 36.8639 222.234 36.8448C221.944 36.6596 221.614 36.5457 221.271 36.5123C220.929 36.4789 220.583 36.5271 220.263 36.6528C220.196 36.6824 220.121 36.6856 220.052 36.6619C219.983 36.6381 219.926 36.5891 219.891 36.5248C219.86 36.4594 219.857 36.3844 219.881 36.3161C219.904 36.2479 219.954 36.1918 220.019 36.16C220.422 35.9935 220.86 35.9264 221.294 35.9643C221.728 36.0022 222.147 36.1439 222.515 36.3776C222.546 36.396 222.572 36.4202 222.593 36.4488C222.614 36.4775 222.629 36.51 222.638 36.5445C222.646 36.579 222.647 36.6149 222.642 36.6499C222.636 36.685 222.624 36.7186 222.605 36.7488C222.57 36.81 222.512 36.8557 222.445 36.8768Z" fill="#263238"/>
<path d="M214.061 38.4704C213.995 38.4955 213.922 38.4955 213.856 38.4704C213.794 38.4341 213.748 38.3755 213.728 38.3064C213.708 38.2374 213.715 38.1633 213.747 38.0992C213.943 37.7097 214.229 37.373 214.582 37.1179C214.935 36.8627 215.345 36.6966 215.776 36.6336C215.812 36.6301 215.848 36.6338 215.883 36.6446C215.917 36.6553 215.949 36.6728 215.976 36.6961C216.004 36.7194 216.026 36.7479 216.042 36.7801C216.059 36.8122 216.068 36.8473 216.071 36.8832C216.076 36.9552 216.053 37.0264 216.006 37.0815C215.959 37.1366 215.893 37.1711 215.821 37.1776C215.481 37.2347 215.16 37.3711 214.883 37.5757C214.606 37.7804 214.382 38.0474 214.227 38.3552C214.209 38.385 214.185 38.4106 214.156 38.4304C214.128 38.4503 214.095 38.4639 214.061 38.4704Z" fill="#263238"/>
<path d="M243.161 65.3504C244.466 68.5428 245.592 71.8055 246.534 75.1232C247.532 78.4699 248.243 81.8956 248.659 85.3632C248.768 86.2464 248.8 87.1744 248.838 88.0896V88.608C248.838 88.7936 248.806 88.9856 248.78 89.152C248.727 89.4718 248.654 89.7882 248.563 90.0992C248.396 90.6314 248.182 91.1477 247.923 91.6416C247.035 93.2824 245.948 94.8066 244.684 96.1792C242.348 98.7455 239.777 101.087 237.004 103.174L235.155 101.12C237.286 98.6304 239.436 96.0768 241.26 93.44C242.142 92.2434 242.893 90.9561 243.5 89.6C243.605 89.3376 243.69 89.0681 243.756 88.7936C243.774 88.7006 243.784 88.6065 243.788 88.512C243.792 88.4844 243.792 88.4564 243.788 88.4288V88.3392C243.705 87.584 243.648 86.8288 243.507 86.0544C242.956 82.8928 242.188 79.7729 241.209 76.7168C240.23 73.6192 239.136 70.4768 238.009 67.4816L243.161 65.3504Z" fill="#FFC3BD"/>
<path d="M240.761 59.1104C243.117 59.8272 245.945 67.936 245.945 67.936L236.8 74.464C236.8 74.464 233.465 67.6992 234.457 64.6528C235.52 61.4848 238.08 58.2912 240.761 59.1104Z" fill="#2563EB"/>
<path opacity="0.4" d="M240.761 59.1104C243.117 59.8272 245.945 67.936 245.945 67.936L236.8 74.464C236.8 74.464 233.465 67.6992 234.457 64.6528C235.52 61.4848 238.08 58.2912 240.761 59.1104Z" fill="black"/>
<path d="M267.098 203.693C266.979 203.69 266.863 203.66 266.758 203.605C266.653 203.551 266.561 203.474 266.49 203.379C266.432 203.319 266.39 203.245 266.37 203.164C266.35 203.083 266.351 202.999 266.374 202.918C266.592 202.214 268.602 201.638 268.832 201.574C268.857 201.565 268.885 201.565 268.91 201.573C268.935 201.581 268.958 201.597 268.973 201.619C268.987 201.641 268.995 201.667 268.995 201.693C268.995 201.719 268.987 201.744 268.973 201.766C268.614 202.451 267.904 203.603 267.174 203.686L267.098 203.693ZM268.582 201.933C267.789 202.189 266.752 202.63 266.662 203.002C266.653 203.037 266.653 203.074 266.663 203.109C266.674 203.144 266.693 203.175 266.72 203.2C266.771 203.273 266.841 203.332 266.921 203.37C267.002 203.408 267.092 203.425 267.181 203.418C267.552 203.373 268.07 202.822 268.582 201.933Z" fill="#2563EB"/>
<path d="M267.949 201.958C267.35 202.019 266.75 201.85 266.272 201.485C266.205 201.4 266.168 201.295 266.168 201.187C266.168 201.079 266.205 200.974 266.272 200.89C266.329 200.801 266.405 200.726 266.495 200.671C266.584 200.615 266.685 200.581 266.79 200.57C267.622 200.467 268.883 201.555 268.934 201.6C268.953 201.615 268.967 201.635 268.975 201.658C268.983 201.68 268.984 201.705 268.979 201.728C268.976 201.753 268.966 201.776 268.951 201.796C268.935 201.815 268.913 201.829 268.889 201.837C268.584 201.924 268.267 201.965 267.949 201.958ZM266.931 200.838H266.841C266.776 200.846 266.713 200.867 266.656 200.902C266.6 200.936 266.552 200.982 266.515 201.037C266.419 201.184 266.451 201.261 266.515 201.312C266.765 201.638 267.904 201.76 268.595 201.632C268.122 201.222 267.547 200.948 266.931 200.838Z" fill="#2563EB"/>
<path d="M215.072 224.826C214.578 224.871 214.083 224.744 213.671 224.467C213.582 224.387 213.514 224.287 213.471 224.176C213.428 224.065 213.411 223.946 213.421 223.827C213.426 223.751 213.451 223.678 213.492 223.614C213.534 223.55 213.591 223.498 213.658 223.462C214.368 223.072 216.672 224.25 216.935 224.39C216.959 224.404 216.979 224.425 216.991 224.45C217.004 224.475 217.009 224.503 217.005 224.531C217.001 224.56 216.989 224.586 216.969 224.607C216.95 224.627 216.924 224.641 216.896 224.646C216.295 224.762 215.684 224.822 215.072 224.826ZM214.042 223.629C213.953 223.623 213.865 223.641 213.786 223.68C213.758 223.693 213.735 223.714 213.719 223.741C213.704 223.767 213.695 223.797 213.696 223.827C213.686 223.907 213.695 223.989 213.723 224.065C213.75 224.14 213.796 224.208 213.856 224.262C214.208 224.582 215.136 224.634 216.416 224.422C215.676 224.024 214.873 223.756 214.042 223.629Z" fill="#2563EB"/>
<path d="M216.871 224.64H216.813C216.122 224.326 214.759 223.078 214.893 222.426C214.893 222.272 215.027 222.074 215.405 222.035C215.541 222.021 215.679 222.035 215.81 222.075C215.941 222.116 216.062 222.183 216.167 222.272C216.89 222.88 217.024 224.435 217.031 224.506C217.033 224.529 217.028 224.553 217.018 224.574C217.008 224.595 216.992 224.614 216.973 224.627C216.958 224.637 216.941 224.643 216.923 224.645C216.906 224.647 216.888 224.645 216.871 224.64ZM215.488 222.291H215.411C215.155 222.291 215.143 222.419 215.136 222.451C215.072 222.842 216 223.827 216.704 224.25C216.647 223.592 216.388 222.968 215.962 222.464C215.832 222.345 215.664 222.277 215.488 222.272V222.291Z" fill="#2563EB"/>
<path d="M236.947 92.8L237.549 94.9056C237.632 95.0656 237.44 95.232 237.165 95.232H212.979C212.768 95.232 212.589 95.1296 212.576 94.9952L212.365 92.896C212.365 92.7488 212.531 92.6272 212.768 92.6272H236.57C236.642 92.621 236.715 92.6337 236.781 92.664C236.847 92.6943 236.905 92.7411 236.947 92.8Z" fill="#2563EB"/>
<path opacity="0.3" d="M236.947 92.8L237.549 94.9056C237.632 95.0656 237.44 95.232 237.165 95.232H212.979C212.768 95.232 212.589 95.1296 212.576 94.9952L212.365 92.896C212.365 92.7488 212.531 92.6272 212.768 92.6272H236.57C236.642 92.621 236.715 92.6337 236.781 92.664C236.847 92.6943 236.905 92.7411 236.947 92.8Z" fill="white"/>
<path d="M233.754 95.488H234.394C234.515 95.488 234.611 95.424 234.605 95.3408L234.304 92.608C234.304 92.5312 234.189 92.4608 234.061 92.4608H233.421C233.293 92.4608 233.197 92.5312 233.21 92.608L233.504 95.3408C233.517 95.424 233.6 95.488 233.754 95.488Z" fill="#263238"/>
<path d="M214.771 95.488H215.411C215.539 95.488 215.635 95.424 215.629 95.3408L215.328 92.608C215.328 92.5312 215.207 92.4608 215.085 92.4608H214.445C214.317 92.4608 214.221 92.5312 214.227 92.608L214.528 95.3408C214.535 95.424 214.643 95.488 214.771 95.488Z" fill="#263238"/>
<path d="M224.262 95.488H224.902C225.03 95.488 225.126 95.424 225.12 95.3408L224.819 92.608C224.819 92.5312 224.704 92.4608 224.576 92.4608H223.936C223.808 92.4608 223.712 92.5312 223.725 92.608L224 95.36C224 95.424 224.134 95.488 224.262 95.488Z" fill="#263238"/>
<path d="M221.389 39.392L220.243 39.1744C220.243 39.1744 220.896 39.9936 221.389 39.392Z" fill="#263238"/>
<path opacity="0.2" d="M200.205 120.89C189.362 125.102 177.513 126.005 166.158 123.483C154.802 120.962 144.448 115.13 136.407 106.724C128.366 98.319 122.997 87.7179 120.981 76.2615C118.964 64.8052 120.39 53.0081 125.078 42.3621C129.766 31.7162 137.506 22.6994 147.318 16.4519C157.13 10.2045 168.575 7.00705 180.205 7.26388C191.834 7.52072 203.127 11.2203 212.654 17.8948C222.181 24.5693 229.515 33.919 233.728 44.7616C236.527 51.9613 237.88 59.6418 237.71 67.3644C237.54 75.0871 235.85 82.7006 232.737 89.77C229.624 96.8394 225.148 103.226 219.567 108.566C213.985 113.905 207.406 118.093 200.205 120.89Z" fill="#2563EB"/>
<path opacity="0.1" d="M189.562 8.22399L143.431 112.992C142.72 112.454 142.016 111.898 141.325 111.334C136.866 107.646 132.983 103.312 129.805 98.4768L169.651 7.98079C176.253 6.91754 182.988 6.99981 189.562 8.22399Z" fill="white"/>
<path opacity="0.1" d="M222.355 26.4L178.983 124.902C169.973 124.912 161.083 122.849 152.999 118.874L200.359 11.3088C208.749 14.5901 216.274 19.753 222.355 26.4Z" fill="white"/>
<path d="M130.483 26.4448C138.32 16.8685 148.821 9.83131 160.658 6.22302C172.495 2.61474 185.136 2.59745 196.982 6.17335C208.828 9.74926 219.349 16.7577 227.212 26.3125C235.075 35.8673 239.929 47.5393 241.159 59.8525C242.388 72.1656 239.939 84.567 234.121 95.4882C228.303 106.41 219.377 115.36 208.471 121.208C197.566 127.057 185.172 129.54 172.855 128.344C160.539 127.148 148.853 122.327 139.277 114.49C126.437 103.979 118.297 88.7993 116.648 72.2882C114.999 55.777 119.975 39.287 130.483 26.4448ZM223.36 102.451C230.554 93.6575 234.979 82.928 236.075 71.6196C237.171 60.3112 234.89 48.9316 229.519 38.9199C224.148 28.9081 215.929 20.7138 205.901 15.3731C195.873 10.0323 184.487 7.78506 173.181 8.91538C161.876 10.0457 151.16 14.5029 142.388 21.7233C133.616 28.9437 127.182 38.6031 123.9 49.4801C120.618 60.357 120.634 71.963 123.948 82.8306C127.261 93.6981 133.723 103.339 142.515 110.534C148.354 115.313 155.077 118.894 162.3 121.073C169.523 123.253 177.105 123.989 184.612 123.238C192.119 122.488 199.405 120.265 206.054 116.699C212.702 113.132 218.583 108.291 223.36 102.451Z" fill="#2563EB"/>
<path d="M228.884 102.234C235.047 105.914 240.909 109.958 246.669 114.131C252.429 118.304 258.042 122.65 263.565 127.11C269.089 131.571 274.509 136.16 279.738 140.979C282.358 143.386 284.918 145.856 287.418 148.39C289.927 150.95 292.391 153.51 294.714 156.288C295.251 156.931 295.547 157.741 295.551 158.579C295.555 159.416 295.267 160.229 294.737 160.878C294.207 161.526 293.467 161.97 292.646 162.132C291.824 162.294 290.971 162.165 290.234 161.766C287.034 160.038 284.039 158.131 281.05 156.179C278.061 154.227 275.143 152.192 272.263 150.099C266.503 145.926 260.929 141.53 255.469 136.992C250.01 132.454 244.634 127.814 239.405 122.989C234.177 118.163 229.05 113.222 224.225 107.91C223.622 107.253 223.277 106.401 223.251 105.51C223.226 104.619 223.523 103.749 224.088 103.059C224.653 102.369 225.447 101.906 226.326 101.754C227.204 101.603 228.108 101.773 228.871 102.234H228.884Z" fill="#2563EB"/>
<path d="M235.77 100.48L229.587 101.421L234.01 105.299C234.01 105.299 237.504 104.019 237.85 101.651L235.77 100.48Z" fill="#FFC3BD"/>
<path d="M226.246 104.973L230.131 108.019L234.873 104.922L229.587 101.434L226.246 104.973Z" fill="#FFC3BD"/>
<path d="M197.018 111.712C197.582 110.17 198.601 108.836 199.938 107.884C201.276 106.933 202.871 106.409 204.512 106.381H255.744C256.629 106.348 257.511 106.509 258.327 106.854C259.143 107.199 259.874 107.719 260.467 108.377C261.06 109.035 261.502 109.815 261.76 110.662C262.019 111.509 262.089 112.403 261.965 113.28L248.73 224.326C248.449 226.217 247.505 227.946 246.066 229.204C244.627 230.462 242.788 231.167 240.877 231.194H78.3168C77.4346 231.227 76.5556 231.067 75.7419 230.724C74.9282 230.382 74.1995 229.865 73.6071 229.21C73.0147 228.556 72.5729 227.779 72.313 226.935C72.053 226.091 71.9812 225.201 72.1024 224.326L83.2 131.027C83.4809 129.137 84.4251 127.408 85.8638 126.15C87.3025 124.892 89.1418 124.186 91.0528 124.16H179.514C183.347 124.095 187.07 122.871 190.195 120.649C193.319 118.427 195.698 115.311 197.018 111.712Z" fill="#2563EB"/>
<path d="M75.0273 226.08H244.89L254.567 111.789H84.7105L75.0273 226.08Z" fill="#F0F0F0"/>
<path d="M75.0273 226.08H244.89L251.891 111.789H84.7105L75.0273 226.08Z" fill="#E0E0E0"/>
<path d="M75.0273 226.08H244.89L250.727 108.16H80.8705L75.0273 226.08Z" fill="#F0F0F0"/>
<path d="M75.0273 226.08H244.89L247.2 108.16H80.8705L75.0273 226.08Z" fill="#E0E0E0"/>
<path d="M75.0273 226.08H244.89L245.901 104.96H76.0449L75.0273 226.08Z" fill="#F0F0F0"/>
<path d="M75.0271 226.08H244.889L241.401 107.251H72.6399L75.0271 226.08Z" fill="#E0E0E0"/>
<path d="M75.0273 226.08H244.89L239.846 108.16H69.9905L75.0273 226.08Z" fill="#F0F0F0"/>
<path d="M75.0271 226.08H244.889L236.857 109.939H67.0015L75.0271 226.08Z" fill="#E0E0E0"/>
<path d="M75.027 226.08H244.889L235.577 110.931H65.7214L75.027 226.08Z" fill="#F0F0F0"/>
<path d="M160.09 118.925C160.099 118.182 160.258 117.449 160.557 116.769C160.855 116.089 161.288 115.476 161.828 114.967C162.369 114.458 163.006 114.062 163.702 113.804C164.399 113.546 165.14 113.431 165.882 113.466H217.114C219.097 113.542 220.999 114.274 222.522 115.549C224.044 116.823 225.1 118.566 225.523 120.506L245.767 224.186C246.522 228.07 243.987 231.226 240.103 231.226H77.5426C73.6514 231.226 69.8626 228.07 69.1266 224.186L52.429 138.714C51.6738 134.829 54.2082 131.674 58.093 131.674H146.56C154.24 131.674 159.827 126.387 160.09 118.925Z" fill="#2563EB"/>
<path opacity="0.2" d="M160.09 118.925C160.099 118.182 160.258 117.449 160.557 116.769C160.855 116.089 161.288 115.476 161.828 114.967C162.369 114.458 163.006 114.062 163.702 113.804C164.399 113.546 165.14 113.431 165.882 113.466H217.114C219.097 113.542 220.999 114.274 222.522 115.549C224.044 116.823 225.1 118.566 225.523 120.506L245.767 224.186C246.522 228.07 243.987 231.226 240.103 231.226H77.5426C73.6514 231.226 69.8626 228.07 69.1266 224.186L52.429 138.714C51.6738 134.829 54.2082 131.674 58.093 131.674H146.56C154.24 131.674 159.827 126.387 160.09 118.925Z" fill="black"/>
</svg>
